<svg xmlns="http://www.w3.org/2000/svg" width="22" height="22" viewBox="0 0 22 22">
  <g id="Grupo_5451" data-name="Grupo 5451" transform="translate(-725 -757.432)">
    <rect id="Rectángulo_11793" data-name="Rectángulo 11793" width="22" height="22" rx="5" transform="translate(725 757.432)" fill="#007aff"/>
    <g id="Grupo_4904" data-name="Grupo 4904" transform="translate(1355.629 336.44)">
      <path id="Trazado_5141" data-name="Trazado 5141" d="M-577.793,430.192a4.553,4.553,0,0,0-3.493-4.452v-.384a1.205,1.205,0,0,0-1.182-1.166,1.2,1.2,0,0,0-1.178,1.166v.384a4.554,4.554,0,0,0-3.494,4.452v3.743l-1.395,1.384v.874H-576.4v-.874l-1.4-1.384Z" transform="translate(-37.163 0)" fill="#fff"/>
      <path id="Trazado_5142" data-name="Trazado 5142" d="M-465.15,765.933a1.169,1.169,0,0,0,1.166,1.17h.228a1.018,1.018,0,0,0,.824-.7,1.091,1.091,0,0,0,.117-.474v-.1h-2.335Z" transform="translate(-155.647 -329.31)" fill="#fff"/>
      <path id="Trazado_5143" data-name="Trazado 5143" d="M-625.5,431.167a4.336,4.336,0,0,1,1.877-3.34l.1-.068-.9-.9-.07.052a5.742,5.742,0,0,0-2.282,4.238l-.007.107h1.269Z" transform="translate(0 -2.598)" fill="#fff"/>
      <path id="Trazado_5144" data-name="Trazado 5144" d="M-332.407,431.167l.007.093h1.269l-.007-.107a5.712,5.712,0,0,0-2.231-4.238l-.069-.052-.9.895.1.068A4.42,4.42,0,0,1-332.407,431.167Z" transform="translate(-281.354 -2.598)" fill="#fff"/>
    </g>
  </g>
</svg>
