<svg xmlns="http://www.w3.org/2000/svg" xmlns:xlink="http://www.w3.org/1999/xlink" width="38.359" height="38.359" viewBox="0 0 38.359 38.359">
  <defs>
    <clipPath id="clip-path">
      <rect id="Rectángulo_11443" data-name="Rectángulo 11443" width="27.125" height="27.123" transform="translate(0 0)" fill="#ff6113"/>
    </clipPath>
  </defs>
  <g id="Grupo_5050" data-name="Grupo 5050" transform="translate(19.179 0) rotate(45)">
    <g id="Grupo_4299" data-name="Grupo 4299" transform="translate(0 0)" clip-path="url(#clip-path)">
      <path id="Trazado_6477" data-name="Trazado 6477" d="M16.1,11.024h2.51c1.963,0,3.926-.005,5.889,0a2.455,2.455,0,0,1,2.6,2.152,2.411,2.411,0,0,1-1.914,2.679,4.946,4.946,0,0,1-.853.074q-3.865.008-7.73,0h-.5v.455q0,4.049,0,8.1a2.514,2.514,0,0,1-1.626,2.492A2.458,2.458,0,0,1,11.193,24.5c-.01-2.686,0-5.371,0-8.057v-.512h-.444q-4.049,0-8.1,0a2.516,2.516,0,0,1-2.5-1.616,2.458,2.458,0,0,1,2.463-3.289c2.7-.012,5.4,0,8.1,0h.481v-.475q0-3.947,0-7.894A2.506,2.506,0,0,1,12.838.139,2.451,2.451,0,0,1,16.1,2.6c.013,2.645,0,5.289,0,7.934Z" transform="translate(0 0)" fill="#ff6113"/>
    </g>
  </g>
</svg>
