<svg xmlns="http://www.w3.org/2000/svg" width="27.332" height="29.193" viewBox="0 0 27.332 29.193">
  <g id="Grupo_5444" data-name="Grupo 5444" transform="translate(-992.667 -910.076)">
    <path id="Trazado_6744" data-name="Trazado 6744" d="M80.2,39.424q-1.372-1.384-2.741-2.772c-.109-.111-.163-.064-.247.02-.434.439-.873.873-1.308,1.312-.074.075-.155.167-.251.153-.043-.006-.054-.162-.078-.249-.556-2.079-1.123-4.155-1.683-6.231-.121-.444-.228-.891-.347-1.358a4.682,4.682,0,0,1,.978.23c1.749.463,3.5.941,5.242,1.41.461.124.927.234,1.386.362.081.022.2.012.238.1.044.111-.072.164-.135.227-.407.412-.808.831-1.233,1.225-.184.17-.153.254.009.413.848.831,1.68,1.678,2.526,2.512.127.125.137.188,0,.317-.706.692-1.4,1.394-2.1,2.093-.073.073-.137.155-.205.233Z" transform="translate(937.348 899.846)" fill="#11c744"/>
    <path id="Trazado_6745" data-name="Trazado 6745" d="M49.767,21.732a12.23,12.23,0,0,1-1.023-1.714c-.034-.062-.076-.12-.114-.18,0-.017,0-.034,0-.05a.136.136,0,0,0,0-.05c0-.064.013-.134-.061-.172-.066-.013-.048-.067-.054-.11l-.043-.062-.015-.11-.046-.062-.067-.067c0-.017,0-.034,0-.05a.114.114,0,0,0,0-.055l-.045-.055c-.166-.589-.348-1.176-.493-1.77a6.584,6.584,0,0,1-.191-1.255c.049-.036.049-.074,0-.111a2.323,2.323,0,0,1-.06-.63c.006-.006.019-.012.018-.015a.207.207,0,0,0-.015-.039V13.858c.006-.006.018-.013.016-.016a.2.2,0,0,0-.019-.039,1.833,1.833,0,0,1,.06-.687c.006-.006.018-.013.016-.017a.272.272,0,0,0-.019-.038c-.056-.146.055-.266.061-.4.047-.038.045-.074,0-.11a14.282,14.282,0,0,1,.91-3.2l.044-.062.526-1.079.046-.06.4-.624a.112.112,0,0,0,.058-.116A13.044,13.044,0,0,1,53.3,3.761c.049,0,.1-.006.119-.058a11.9,11.9,0,0,1,3.546-1.6c.488-.134.987-.207,1.477-.326.036.048.072.048.111,0l.4-.062c.018.027.036.029.055,0l.687-.06c.018.027.036.028.055,0l.915,0,.062.043a12.159,12.159,0,0,1,6.425,1.877,12.3,12.3,0,0,1,2.778,2.3,12.54,12.54,0,0,1,2.882,5.309,12.091,12.091,0,0,1,.352,1.938,5.751,5.751,0,0,1,.049.728.074.074,0,0,0,.022.049.851.851,0,0,1,.014.352c0,.006-.015.012-.014.015a.184.184,0,0,0,.015.036c0,.1,0,.194,0,.292-.06.067-.032.149-.038.224a12.663,12.663,0,0,1-1.5,5.79c-.114.22-.272.419-.38.642a.2.2,0,0,1-.271.114c-.917-.256-1.833-.517-2.762-.732-.088-.02-.2-.072-.1-.2a10.493,10.493,0,0,0,1.49-2.71l.04-.116a15.815,15.815,0,0,0,.365-1.644,4.909,4.909,0,0,0,.085-.775,14.942,14.942,0,0,0-.105-2.069c-.111-.545-.189-1.109-.353-1.641a9.519,9.519,0,0,0-1.036-2.21,10,10,0,0,0-1.265-1.625,9.466,9.466,0,0,0-4.14-2.487,12.575,12.575,0,0,0-2.4-.454c-.492-.038-.971.029-1.456.029a8.659,8.659,0,0,0-1.212.161l-.117.043a7.667,7.667,0,0,0-1.54.527L56.5,5.52a5.749,5.749,0,0,0-1.542.793,9.792,9.792,0,0,0-3.233,3.531,10.2,10.2,0,0,0-1.039,2.944,10.744,10.744,0,0,0-.107,2.589,3.92,3.92,0,0,0,.216,1.165l.045.055a1.948,1.948,0,0,0,.184.853c0,.061-.013.125.043.173a12.312,12.312,0,0,0,.477,1.2A10.718,10.718,0,0,0,53.293,21.3a9.987,9.987,0,0,0,3.154,2.217.175.175,0,0,0,.231.041,4.6,4.6,0,0,0,1.4.514,2.537,2.537,0,0,0,.7.131l.058.039.854.071.06.042h1.3l.062-.043c.151-.03.313.017.459-.056.036.049.073.048.111,0a9.824,9.824,0,0,0,2.483-.7c.211-.091.311-.066.369.163.211.837.423,1.674.655,2.505.043.153.009.2-.116.247a10.935,10.935,0,0,1-2.4.681,2.137,2.137,0,0,1-.526.054l-.059.039a10.3,10.3,0,0,1-1.2.113l-.05-.011-.235.007h-.451a1.148,1.148,0,0,1-.409-.015l-.048.018c-.178.036-.341-.07-.517-.053-.02-.026-.038-.023-.055,0a.594.594,0,0,1-.4-.06c-.038-.048-.075-.046-.111,0a1.689,1.689,0,0,1-.573-.113.1.1,0,0,0-.168,0c-.221.026-.407-.142-.629-.111,0-.109-.067-.061-.118-.043-.535-.184-1.078-.349-1.6-.557A10.869,10.869,0,0,1,52.9,24.95c-.035-.027-.1-.017-.106-.078a.114.114,0,0,0-.118-.06l-.4-.34a.111.111,0,0,0-.114-.06l-.513-.467-.06-.046a4.717,4.717,0,0,1-.682-.7l-.055-.046q-.426-.525-.852-1.048c-.036-.043-.075-.083-.063-.146a.1.1,0,0,0-.1-.06.081.081,0,0,1-.015-.053.112.112,0,0,0-.06-.116" transform="translate(945.127 908.412)" fill="#11c744"/>
    <path id="Trazado_6746" data-name="Trazado 6746" d="M55.722,21.122a5.544,5.544,0,0,1-.795-1.427l-.044-.057c0-.037-.009-.074-.014-.111l-.045-.061q-.063-.2-.125-.4l-.043-.058a8.629,8.629,0,0,1-.364-2.058c-.013-.379.022-.756.007-1.134a.777.777,0,0,1,.074-.406c.048-.038.045-.074,0-.11a3.293,3.293,0,0,1,.228-.973c.048-.038.047-.074,0-.111a9.137,9.137,0,0,1,.8-1.827l.045-.061.126-.224.046-.06.076-.112.039-.056a.173.173,0,0,1,.111-.114.109.109,0,0,0,.06-.114.174.174,0,0,1,.111-.114.11.11,0,0,0,.06-.114l.678-.743.064-.046.506-.465c.05,0,.1-.008.121-.061a.182.182,0,0,1,.11-.112.112.112,0,0,0,.118-.059.181.181,0,0,1,.111-.112.112.112,0,0,0,.118-.059,7.641,7.641,0,0,1,3.185-1.252.783.783,0,0,0,.126-.042c.036.048.073.048.111,0a7.783,7.783,0,0,1,1.543-.06l.06.042a7.524,7.524,0,0,1,3.728,1.135,7.638,7.638,0,0,1,1.5,1.17A8.175,8.175,0,0,1,69.918,13.4a8.418,8.418,0,0,1,.533,2.077,8.179,8.179,0,0,1,.036,1.808A7.435,7.435,0,0,1,69.8,19.87,9.771,9.771,0,0,1,68.668,21.7c-.035.044-.072.088-.107.132a.463.463,0,0,1-.589.179c-.795-.252-1.606-.449-2.413-.663-.135-.036-.186,0-.141.164.191.684.357,1.374.551,2.058.043.156.046.221-.121.3A7.482,7.482,0,0,1,63,24.61c-.2.008-.408.043-.614.048a7.189,7.189,0,0,1-2.639-.454.644.644,0,0,0-.139-.02l-.056-.04c-.156.07-.248-.073-.354-.126a9.859,9.859,0,0,1-1.871-1.14l-.06-.045a15.182,15.182,0,0,1-1.138-1.14.109.109,0,0,0-.06-.115.178.178,0,0,1-.111-.114.11.11,0,0,0-.06-.115.175.175,0,0,1-.111-.114.11.11,0,0,0-.06-.114m4-3.15c-.259.482-.52.964-.777,1.448a.2.2,0,0,0,.081.3,6.27,6.27,0,0,0,1.2.552c.393.156.809.228,1.212.349l.046.046c0,.6.014,1.2,0,1.8,0,.191.034.266.244.256.408-.018.818-.018,1.226,0,.212.009.248-.071.244-.26-.012-.541.007-1.083-.011-1.625-.006-.173.065-.24.2-.262a3.1,3.1,0,0,0,1.746-.875.111.111,0,0,0,.06-.112,3.854,3.854,0,0,0,.413-.8c.048-.037.048-.075,0-.111a3.09,3.09,0,0,0,.043-.807,1.927,1.927,0,0,0-.517-1.281,3.067,3.067,0,0,0-1.168-.766,5.924,5.924,0,0,0-1.069-.388c-.385-.074-.746-.2-1.116-.3a.7.7,0,0,1-.51-.791l.04-.122a.342.342,0,0,1,.111-.221l.062-.046a.88.88,0,0,1,.458-.167c.018.027.036.029.055,0a3.169,3.169,0,0,1,.687,0l.06.04a.535.535,0,0,1,.142,0,4.764,4.764,0,0,1,1.447.6c.19.13.3.081.341-.13a.417.417,0,0,1,.1-.25,7.081,7.081,0,0,0,.572-.971c.061-.086.015-.136-.082-.184a6.834,6.834,0,0,0-1.8-.709c-.238-.042-.283-.141-.278-.352.012-.474,0-.95.008-1.424,0-.17-.036-.232-.219-.226-.417.014-.835.018-1.252,0-.213-.009-.245.071-.242.259.009.54,0,1.081-.006,1.622l-.045.046a.883.883,0,0,1-.179.072A2.792,2.792,0,0,0,59.7,13.234a2.489,2.489,0,0,0-.432,2,1.916,1.916,0,0,0,.659,1.119,5.469,5.469,0,0,0,1.8.829,6.077,6.077,0,0,1,1.538.587.585.585,0,0,1,.273.643.529.529,0,0,1-.453.431,3.183,3.183,0,0,1-1.65-.095A3.956,3.956,0,0,1,60,18.1c-.023-.053-.071-.06-.121-.061l-.106-.067-.029-.069-.029.068" transform="translate(943.107 906.399)" fill="#11c744"/>
  </g>
</svg>
