<svg xmlns="http://www.w3.org/2000/svg" width="20.693" height="20.699" viewBox="0 0 20.693 20.699">
  <g id="download_icon_blue" data-name="download icon blue" transform="translate(-1568.1 -774.197)">
    <path id="Trazado_6787" data-name="Trazado 6787" d="M1576.66,784.2v-.351q0-4.1,0-8.2a1.409,1.409,0,1,1,2.816.019q0,3.72,0,7.437V784.2c.1-.092.167-.149.228-.21.649-.648,1.291-1.3,1.945-1.943a1.4,1.4,0,0,1,2.358.556,1.362,1.362,0,0,1-.383,1.437q-1.759,1.76-3.518,3.519c-.339.34-.676.682-1.019,1.017a1.39,1.39,0,0,1-2.034.005q-2.281-2.272-4.554-4.555a1.4,1.4,0,1,1,1.981-1.983c.647.637,1.286,1.283,1.928,1.924C1576.475,784.03,1576.545,784.093,1576.66,784.2Z" transform="translate(0.379)" fill="#0079ff"/>
    <path id="Trazado_6788" data-name="Trazado 6788" d="M1588.792,789.907h0q0-.986,0-1.972a1.9,1.9,0,0,0-.063-.516,1.4,1.4,0,0,0-2.735.4v2.09h0v1H1570.9v-1h0q0-1.06,0-2.118a1.386,1.386,0,0,0-1.751-1.325,1.406,1.406,0,0,0-1.049,1.5q0,1.254,0,2.51h0v.576a3.159,3.159,0,0,0,.062.675,2.517,2.517,0,0,0,2.637,2q7.647,0,15.294,0a3.2,3.2,0,0,0,.7-.062,2.5,2.5,0,0,0,2-2.561C1588.794,790.7,1588.792,790.3,1588.792,789.907Z" transform="translate(0 1.17)" fill="#0079ff"/>
  </g>
</svg>
