<svg id="download_icon" data-name="download-icon" xmlns="http://www.w3.org/2000/svg" width="16.25" height="16.255" viewBox="0 0 16.25 16.255">
  <path id="Trazado_6736" data-name="Trazado 6736" d="M1579.63,781.706v-.275q0-3.218,0-6.437a1.107,1.107,0,1,1,2.211.016q0,2.92,0,5.839v.854c.078-.073.13-.118.178-.166.509-.509,1.014-1.022,1.528-1.526a1.1,1.1,0,0,1,1.851.437,1.067,1.067,0,0,1-.3,1.127l-2.762,2.763c-.267.267-.531.535-.8.8a1.091,1.091,0,0,1-1.6,0q-1.793-1.784-3.577-3.576a1.1,1.1,0,1,1,1.556-1.557c.509.5,1.009,1.007,1.514,1.511C1579.486,781.57,1579.54,781.62,1579.63,781.706Z" transform="translate(-1572.611 -773.849)" fill="#373737"/>
  <path id="Trazado_6737" data-name="Trazado 6737" d="M1588.308,788.808h0q0-.774,0-1.549a1.531,1.531,0,0,0-.051-.405,1.095,1.095,0,0,0-2.147.313q0,.821,0,1.641h0v.788h-11.85v-.232c0-.185,0-.371,0-.556h0c0-.554,0-1.108,0-1.662a1.088,1.088,0,0,0-1.375-1.04,1.1,1.1,0,0,0-.824,1.176c0,.657,0,1.315,0,1.971h0c0,.151,0,.3,0,.453a2.423,2.423,0,0,0,.047.53,1.978,1.978,0,0,0,2.071,1.571q6.006,0,12.011,0a2.564,2.564,0,0,0,.551-.048,1.962,1.962,0,0,0,1.567-2.012C1588.31,789.433,1588.307,789.12,1588.308,788.808Z" transform="translate(-1572.059 -775.553)" fill="#373737"/>
</svg>
