<svg xmlns="http://www.w3.org/2000/svg" width="28.187" height="16.081" viewBox="0 0 28.187 16.081">
  <g id="eye_icon_orange" data-name="eye_icon_orange" transform="translate(0 0)">
    <path id="Trazado_6856" data-name="Trazado 6856" d="M689.1,380.047c-3.766,4.7-8.618,7.534-13.913,7.534s-10.146-2.832-13.912-7.533a.81.81,0,0,1,0-1.021c8.023-10.037,19.85-10.037,27.826,0a.809.809,0,0,1,0,1.019Zm-13.912-6.528a6.021,6.021,0,1,1-6.022,6.022,6.021,6.021,0,0,1,6.022-6.022Z" transform="translate(-661.09 -371.5)" fill="#ff6113" fill-rule="evenodd"/>
    <g id="Grupo_5005" data-name="Grupo 5005" transform="translate(9.887 3.834)">
      <path id="Trazado_5606" data-name="Trazado 5606" d="M680.667,377.459a4.219,4.219,0,0,1,.889.094,1.738,1.738,0,1,0,2.695,1.908,4.208,4.208,0,1,1-3.584-2Z" transform="translate(-676.459 -377.459)" fill="#ff6113" fill-rule="evenodd"/>
    </g>
  </g>
</svg>
