<svg xmlns="http://www.w3.org/2000/svg" xmlns:xlink="http://www.w3.org/1999/xlink" width="32.489" height="18.783" viewBox="0 0 32.489 18.783">
  <defs>
    <clipPath id="clip-path">
      <rect id="Rectángulo_11646" data-name="Rectángulo 11646" width="32.489" height="18.783" transform="translate(0 0)" fill="#fff"/>
    </clipPath>
  </defs>
  <g id="Grupo_4081" data-name="Grupo 4081" transform="translate(0 0)" clip-path="url(#clip-path)">
    <path id="Trazado_6488" data-name="Trazado 6488" d="M5.913,16.251l8-6.863L5.906,2.518,5.8,2.556c0,.356.006.712,0,1.068a2.422,2.422,0,0,1-.062.591A.7.7,0,0,1,5,4.7a.692.692,0,0,1-.654-.628A10.064,10.064,0,0,1,4.418,2.25,2.815,2.815,0,0,1,7.092.012C7.21.009,7.327,0,7.444,0q10.97,0,21.938,0a2.842,2.842,0,0,1,2.807,1.679,3.321,3.321,0,0,1,.284,1.359q.031,6.358.009,12.717a2.888,2.888,0,0,1-2.348,2.963,3.726,3.726,0,0,1-.77.051c-7.312,0-14.625-.014-21.938.014a2.95,2.95,0,0,1-3.053-2.447,9.685,9.685,0,0,1-.028-1.652.693.693,0,0,1,.638-.606.707.707,0,0,1,.746.466,1.882,1.882,0,0,1,.065.52c.009.382,0,.764,0,1.147l.116.04M29.851,1.491H6.965c.134.12.209.191.287.257Q10.14,4.223,13.029,6.7l4.763,4.075a.8.8,0,0,0,1.216,0c.081-.067.161-.136.241-.2l7.625-6.527c.97-.83,1.939-1.662,2.977-2.552m-14.8,8.848-8.09,6.943H29.85c-2.735-2.348-5.4-4.637-8.092-6.944-.65.567-1.283,1.124-1.923,1.672a2.083,2.083,0,0,1-2.848.01c-.643-.547-1.276-1.105-1.94-1.681m15.88,5.941c.161-.521.134-13.406-.024-13.764L22.89,9.389l8.037,6.891" fill="#fff"/>
    <path id="Trazado_6489" data-name="Trazado 6489" d="M3.971,11.923q-1.548,0-3.095,0c-.542,0-.883-.293-.876-.742a.762.762,0,0,1,.864-.726q3.112,0,6.225,0c.521,0,.848.291.85.732,0,.465-.315.736-.873.736q-1.548,0-3.1,0" fill="#fff"/>
    <path id="Trazado_6490" data-name="Trazado 6490" d="M5.072,6.853c.68,0,1.36,0,2.04,0,.508,0,.817.273.826.711a.739.739,0,0,1-.825.756Q5.055,8.33,3,8.321A.74.74,0,1,1,3,6.854c.691,0,1.383,0,2.075,0" fill="#fff"/>
  </g>
</svg>
