<svg id="Grupo_4723" data-name="Grupo 4723" xmlns="http://www.w3.org/2000/svg" xmlns:xlink="http://www.w3.org/1999/xlink" width="31.604" height="29.552" viewBox="0 0 31.604 29.552">
  <defs>
    <clipPath id="clip-path">
      <rect id="Rectángulo_11391" data-name="Rectángulo 11391" width="31.604" height="29.552" fill="#fff"/>
    </clipPath>
  </defs>
  <g id="Grupo_3983" data-name="Grupo 3983" transform="translate(0 0)" clip-path="url(#clip-path)">
    <path id="Trazado_6443" data-name="Trazado 6443" d="M0,8.1h31.6V25.7a3.273,3.273,0,0,1-3.258,3.359c-.132,0-.262,0-.393,0-8.315,0-16.628-.022-24.942.015A2.779,2.779,0,0,1,0,26.049Q.007,18.875,0,11.7V8.1m25.3,5.665c0-.391,0-.783,0-1.173a.773.773,0,0,0-.842-.858q-1.174-.008-2.349,0a.762.762,0,0,0-.841.8c-.019.814-.018,1.631,0,2.445a.731.731,0,0,0,.754.779q1.272.037,2.544,0a.692.692,0,0,0,.732-.781c.007-.4,0-.8,0-1.207m-9.9,10.854c.414,0,.827.007,1.241,0a.688.688,0,0,0,.773-.736q.037-1.255,0-2.511a.742.742,0,0,0-.789-.779c-.817-.017-1.631-.017-2.447,0a.747.747,0,0,0-.787.812q-.011,1.207,0,2.415a.753.753,0,0,0,.8.8c.4.01.8,0,1.206,0m7.875,0c.4,0,.8.006,1.208,0a.719.719,0,0,0,.811-.8q.014-1.207,0-2.414a.757.757,0,0,0-.79-.813q-1.225-.027-2.449,0a.744.744,0,0,0-.791.778c-.02.826-.021,1.653,0,2.478a.757.757,0,0,0,.833.77c.391.007.783,0,1.173,0M15.416,11.736c-.391,0-.783,0-1.174,0a.761.761,0,0,0-.842.821q-.011,1.19,0,2.381a.735.735,0,0,0,.745.818c.859.025,1.719.022,2.576,0a.645.645,0,0,0,.7-.7q.037-1.287,0-2.576a.732.732,0,0,0-.794-.734c-.4-.008-.8,0-1.208,0m-9.8,10.88c0,.392-.006.784,0,1.176a.769.769,0,0,0,.839.829q1.142.011,2.284,0a.845.845,0,0,0,.908-.864c.021-.794.019-1.589,0-2.383a.746.746,0,0,0-.792-.779q-1.223-.025-2.447,0a.752.752,0,0,0-.788.814c-.008.4,0,.8,0,1.207m0-8.877c0,.392-.005.784,0,1.174a.761.761,0,0,0,.789.848c.793.021,1.589.02,2.382,0a.826.826,0,0,0,.858-.846c.023-.8.021-1.611,0-2.415a.743.743,0,0,0-.806-.761q-1.206-.011-2.415,0a.755.755,0,0,0-.8.794c-.008.4,0,.8,0,1.207" transform="translate(0 0.478)" fill="#fff"/>
    <path id="Trazado_6444" data-name="Trazado 6444" d="M25.211.044a.506.506,0,0,1,.125-.039c1.132.017,2.271-.038,3.393.073a3.22,3.22,0,0,1,2.75,2.529,2.129,2.129,0,0,1,.029.358c0,1.165,0,2.329,0,3.516H.016c0-1.3-.008-2.586.006-3.87a2.6,2.6,0,0,1,.15-.733A2.522,2.522,0,0,1,2.732,0c.913,0,1.826,0,2.78,0v.38c0,.827-.005,1.655,0,2.483a.988.988,0,1,0,1.97,0c.007-.936,0-1.872,0-2.834h15.73c.006.111.018.227.019.341,0,.849-.006,1.7,0,2.549a.986.986,0,0,0,.714.983.938.938,0,0,0,1.062-.384,1.529,1.529,0,0,0,.187-.707c.022-.806.008-1.612.008-2.419V.044" transform="translate(0.001 0)" fill="#fff"/>
  </g>
</svg>
