<svg id="Grupo_4572" data-name="Grupo 4572" xmlns="http://www.w3.org/2000/svg" width="20.989" height="21.013" viewBox="0 0 20.989 21.013">
  <path id="Trazado_6753" data-name="Trazado 6753" d="M883.245,402.493c-.163-.238-.32-.48-.477-.722-.19-.294-.387-.6-.594-.89a.93.93,0,0,1-.166-.683c.031-.345.051-.694.07-1.033.016-.286.032-.572.055-.858a.824.824,0,0,0-.507-.883c-.685-.331-1.291-.64-1.855-.944a.777.777,0,0,1-.294-.293c-.315-.585-.625-1.2-.92-1.82a.84.84,0,0,0-.91-.525c-.68.051-1.38.083-2.079.1a.753.753,0,0,1-.4-.115c-.545-.339-1.114-.714-1.741-1.144a.781.781,0,0,0-.982,0c-.124.089-.253.169-.39.254a5.432,5.432,0,0,0-.59.406,2.155,2.155,0,0,1-2.17.505l-.066-.01-.309,0c-.242,0-.491.007-.736-.008a.8.8,0,0,0-.842.5c-.336.7-.643,1.3-.941,1.856a.776.776,0,0,1-.3.29c-.7.378-1.235.65-1.745.883a.929.929,0,0,0-.61,1.032c.061.623.1,1.266.111,1.912a1,1,0,0,1-.136.513c-.34.558-.716,1.111-1.08,1.645l-.041.061a.8.8,0,0,0,0,.983l.059.087c.349.515.711,1.047,1.032,1.588a1.2,1.2,0,0,1,.155.589c-.007.669-.056,1.344-.1,2a.8.8,0,0,0,.5.844c.584.283,1.209.591,1.818.925a.944.944,0,0,1,.351.347c.346.631.661,1.273.924,1.819a.8.8,0,0,0,.843.5c.619-.042,1.35-.087,2.08-.1h.011a.951.951,0,0,1,.465.134c.617.379,1.209.779,1.706,1.121a.79.79,0,0,0,.979,0c.608-.418,1.177-.792,1.741-1.143a.74.74,0,0,1,.4-.116c.62.014,1.294.047,2.122.1a.8.8,0,0,0,.844-.494c.308-.644.626-1.268.943-1.854a.779.779,0,0,1,.294-.292c.547-.3,1.154-.6,1.855-.944a.824.824,0,0,0,.5-.886c-.023-.284-.039-.569-.056-.854-.019-.34-.039-.69-.071-1.036a.987.987,0,0,1,.195-.716c.2-.284.394-.579.58-.865.155-.238.31-.476.472-.71A.849.849,0,0,0,883.245,402.493Zm-2.494,3.93a.5.5,0,0,1,0,.1.724.724,0,0,0,.021.237c.188.635-.026,1-.718,1.207a3.133,3.133,0,0,0-2.172,2.178.888.888,0,0,1-1.228.713,3.456,3.456,0,0,0-3.11.849c-.61.473-.61.473-1.214,0a3.808,3.808,0,0,0-2.37-.944,3.293,3.293,0,0,0-.78.1.853.853,0,0,1-1.167-.693,3.467,3.467,0,0,0-2.21-2.236c-.764-.307-.764-.307-.7-1.155l.006-.072c.032-.424.066-.863.056-1.308a1.379,1.379,0,0,0-.213-.663c-.336-.545-.681-1.069-1.026-1.557-.091-.128-.089-.182.009-.322.422-.6.748-1.1,1.024-1.56a1.487,1.487,0,0,0,.2-.748c-.007-.679-.055-1.353-.1-1.864-.015-.187.016-.243.175-.314.261-.117.517-.25.765-.378s.5-.257.748-.37a1.521,1.521,0,0,0,.79-.8c.105-.227.223-.455.337-.675.128-.249.261-.506.379-.768.09-.2.158-.242.36-.222.613.061,1.228.092,1.83.093h0a1.592,1.592,0,0,0,.779-.216c.571-.34,1.115-.716,1.526-1.006.157-.111.212-.113.346-.014.2.149.411.284.615.414.228.145.444.283.647.44a1.876,1.876,0,0,0,1.43.382c.217-.023.443-.032.662-.041.258-.01.524-.02.788-.054.211-.027.283.018.383.241a14.234,14.234,0,0,0,.758,1.492,2,2,0,0,0,.673.676c.49.289,1.01.536,1.513.775l.115.055c.131.062.145.1.131.216-.028.24-.043.483-.057.717-.006.091-.011.183-.017.274a2.563,2.563,0,0,0,.734,2.543,1.106,1.106,0,0,1-.008,1.761A2.7,2.7,0,0,0,880.751,406.423Z" transform="translate(-862.439 -392.511)" fill="#373737"/>
  <path id="Trazado_6754" data-name="Trazado 6754" d="M887.105,410.515a6.522,6.522,0,0,0-4.673,1.928A6.641,6.641,0,0,0,887.08,423.8h.022a6.641,6.641,0,0,0,0-13.282Zm5.324,6.652a5.351,5.351,0,0,1-5.337,5.33h-.011a5.342,5.342,0,0,1,.013-10.684h.011a5.341,5.341,0,0,1,5.324,5.354Z" transform="translate(-876.592 -406.646)" fill="#373737"/>
  <path id="Trazado_6755" data-name="Trazado 6755" d="M902.1,430.965a.8.8,0,0,0-.562.258L900.4,432.3l-1.644,1.548-.292-.269c-.355-.327-.7-.648-1.05-.972-.434-.407-.765-.262-.965-.069a.615.615,0,0,0-.208.438.761.761,0,0,0,.252.535l1.626,1.673a.776.776,0,0,0,.552.269.764.764,0,0,0,.521-.235l3.25-3.062c.484-.457.235-.83.1-.969A.628.628,0,0,0,902.1,430.965Z" transform="translate(-888.977 -422.701)" fill="#373737"/>
</svg>
