<svg id="Grupo_4752" data-name="Grupo 4752" xmlns="http://www.w3.org/2000/svg" width="18.185" height="16.262" viewBox="0 0 18.185 16.262">
  <g id="Grupo_4749" data-name="Grupo 4749" transform="translate(0 6.971)">
    <rect id="Rectángulo_12346" data-name="Rectángulo 12346" width="14.007" height="0.922" transform="translate(4.179 0.662)" fill="#373737"/>
    <path id="Trazado_6791" data-name="Trazado 6791" d="M1942,595.478a1.123,1.123,0,1,1-1.123-1.123A1.123,1.123,0,0,1,1942,595.478Z" transform="translate(-1939.755 -594.355)" fill="#373737"/>
  </g>
  <g id="Grupo_4750" data-name="Grupo 4750">
    <rect id="Rectángulo_12347" data-name="Rectángulo 12347" width="14.007" height="0.91" transform="translate(4.179 0.642)" fill="#373737"/>
    <path id="Trazado_6792" data-name="Trazado 6792" d="M1942,591.6a1.123,1.123,0,1,1-1.123-1.123A1.123,1.123,0,0,1,1942,591.6Z" transform="translate(-1939.755 -590.475)" fill="#373737"/>
  </g>
  <g id="Grupo_4751" data-name="Grupo 4751" transform="translate(0 14.016)">
    <rect id="Rectángulo_12348" data-name="Rectángulo 12348" width="14.007" height="0.922" transform="translate(4.179 0.657)" fill="#373737"/>
    <path id="Trazado_6793" data-name="Trazado 6793" d="M1942,599.4a1.123,1.123,0,1,1-1.123-1.123A1.123,1.123,0,0,1,1942,599.4Z" transform="translate(-1939.755 -598.276)" fill="#373737"/>
  </g>
</svg>
