<svg id="Grupo_4176" data-name="Grupo 4176" xmlns="http://www.w3.org/2000/svg" xmlns:xlink="http://www.w3.org/1999/xlink" width="26.643" height="23.912" viewBox="0 0 26.643 23.912">
  <defs>
    <clipPath id="clip-path">
      <rect id="Rectángulo_11809" data-name="Rectángulo 11809" width="26.643" height="23.912" transform="translate(0 0)" fill="#11c744"/>
    </clipPath>
  </defs>
  <g id="Grupo_4175" data-name="Grupo 4175" clip-path="url(#clip-path)">
    <path id="Trazado_6607" data-name="Trazado 6607" d="M.908,15.69q0-5.983,0-11.968c0-.065.006-.13.01-.195.006-.023.013-.046.02-.069a1.673,1.673,0,0,1,.147-.935A3.652,3.652,0,0,1,3.547.151,3.4,3.4,0,0,1,4.512,0q8.712-.012,17.425,0a3.716,3.716,0,0,1,2.916,1.255,3.247,3.247,0,0,1,.842,1.823,1.482,1.482,0,0,1,.058.376c0,.008-.01.019-.007.025a.234.234,0,0,0,.026.043c0,.065.011.13.011.195q0,5.956,0,11.913l-.027.07a3.63,3.63,0,0,1-.785,2.383,3.8,3.8,0,0,1-2.2,1.357,3.745,3.745,0,0,1-.851.05L4.43,19.5A3.407,3.407,0,0,1,2.3,18.7,3.652,3.652,0,0,1,.979,16.6a2.335,2.335,0,0,1-.086-.841c.033-.016.065-.033.015-.068M2.541,3.638l0,11.884c-.05.035-.018.052.015.069a.431.431,0,0,0-.048.264,2.1,2.1,0,0,0,2.045,2.02q8.754,0,17.508,0a2.022,2.022,0,0,0,1.486-.616,2.118,2.118,0,0,0,.591-1.667c.033-.017.065-.034.015-.069l0-11.884c.049-.033.013-.049-.013-.068a2.029,2.029,0,0,0-.59-1.332,2.157,2.157,0,0,0-1.628-.611q-8.582-.012-17.162,0a2.074,2.074,0,0,0-1.831.838A1.53,1.53,0,0,0,2.554,3.57c-.026.019-.062.035-.013.068" fill="#11c744"/>
    <path id="Trazado_6608" data-name="Trazado 6608" d="M13.319,22.288h12.4a.815.815,0,1,1,.139,1.623c-.158,0-.317,0-.475,0q-12.2,0-24.4,0a.878.878,0,0,1-.953-.6A.82.82,0,0,1,.7,22.3c.111-.009.223-.007.334-.007H13.319" fill="#11c744"/>
    <path id="Trazado_6609" data-name="Trazado 6609" d="M.936,3.458c-.007.023-.014.046-.02.069-.028-.033-.007-.052.02-.069" fill="#11c744"/>
    <path id="Trazado_6610" data-name="Trazado 6610" d="M25.771,3.527a.273.273,0,0,1-.026-.043c0-.007,0-.017.007-.026.026.018.047.037.019.069" fill="#11c744"/>
    <path id="Trazado_6611" data-name="Trazado 6611" d="M25.754,15.7l.027-.07c.026.036,0,.055-.027.07" fill="#11c744"/>
    <path id="Trazado_6612" data-name="Trazado 6612" d="M.908,15.69c.05.035.018.052-.015.068l.015-.068" fill="#11c744"/>
    <path id="Trazado_6613" data-name="Trazado 6613" d="M2.554,3.571c0,.023-.009.045-.013.068-.049-.034-.014-.05.013-.068" fill="#11c744"/>
    <path id="Trazado_6614" data-name="Trazado 6614" d="M24.147,3.638l-.013-.067c.026.018.061.034.013.067" fill="#11c744"/>
    <path id="Trazado_6615" data-name="Trazado 6615" d="M2.538,15.523l.015.069c-.033-.017-.065-.034-.015-.069" fill="#11c744"/>
    <path id="Trazado_6616" data-name="Trazado 6616" d="M24.135,15.591l.015-.069c.05.035.018.052-.015.069" fill="#11c744"/>
    <path id="Trazado_6617" data-name="Trazado 6617" d="M12.108,4.974a2.745,2.745,0,0,1,1.781.635c.93.665,1.854,1.339,2.8,1.985a2.566,2.566,0,0,1,.064,4.273c-1.06.748-2.116,1.5-3.186,2.233a1.772,1.772,0,0,1-1.164.4c-.163-.011-.358.055-.559.033a2.54,2.54,0,0,1-2.146-1.854,2.893,2.893,0,0,1-.1-.723c.014-1.517,0-3.034.01-4.551a2.531,2.531,0,0,1,1.928-2.375,2.036,2.036,0,0,1,.572-.054m-.88,4.746h0v2.317a.909.909,0,0,0,.865.877,1.122,1.122,0,0,0,.738-.3c.979-.673,1.966-1.334,2.925-2.035a.9.9,0,0,0,.063-1.588c-1.048-.766-2.122-1.5-3.182-2.246a.846.846,0,0,0-.949-.036.837.837,0,0,0-.457.781c0,.744,0,1.489,0,2.233" fill="#11c744"/>
  </g>
</svg>
