<svg id="Grupo_5221" data-name="Grupo 5221" xmlns="http://www.w3.org/2000/svg" width="30.673" height="17.5" viewBox="0 0 30.673 17.5">
  <path id="Trazado_5605" data-name="Trazado 5605" d="M691.566,380.8c-4.1,5.117-9.378,8.2-15.14,8.2s-11.04-3.081-15.139-8.2a.881.881,0,0,1,0-1.111c8.731-10.922,21.6-10.922,30.28,0a.881.881,0,0,1,0,1.109Zm-15.139-7.1a6.553,6.553,0,1,1-6.553,6.553,6.553,6.553,0,0,1,6.553-6.553Z" transform="translate(-661.09 -371.5)" fill="red" fill-rule="evenodd"/>
  <path id="Trazado_5606" data-name="Trazado 5606" d="M681.038,377.459a4.593,4.593,0,0,1,.967.1,1.891,1.891,0,1,0,2.932,2.076,4.579,4.579,0,1,1-3.9-2.178Z" transform="translate(-665.701 -373.287)" fill="red" fill-rule="evenodd"/>
</svg>
