<svg id="Grupo_4800" data-name="Grupo 4800" xmlns="http://www.w3.org/2000/svg" width="16.768" height="15.568" viewBox="0 0 16.768 15.568">
  <path id="Trazado_6733" data-name="Trazado 6733" d="M1439.843,721.538a4.461,4.461,0,0,0-.051-.724,5.374,5.374,0,0,0-5.468-4.645c-2.281-.02-4.562,0-6.842,0h-.7c1.082-1.082,2.051-2.036,3-3.011a1.772,1.772,0,0,0,.44-.72,1.07,1.07,0,0,0-1.858-.9q-1.085,1.078-2.166,2.16-1.356,1.356-2.71,2.714a1.1,1.1,0,0,0-.011,1.706q2.415,2.494,4.861,4.958a1.229,1.229,0,0,0,.609.326.941.941,0,0,0,1.1-.556,1.238,1.238,0,0,0-.279-1.376c-.813-.826-1.637-1.641-2.456-2.461-.147-.147-.288-.3-.506-.527h.583q3.415,0,6.83,0a3.461,3.461,0,0,1,3.454,3.45q0,1.856,0,3.713a1.082,1.082,0,0,0,1.083,1.084h0a1.084,1.084,0,0,0,1.084-1.084Q1439.844,723.587,1439.843,721.538Z" transform="translate(-1423.076 -711.152)" fill="#373737"/>
</svg>
