<svg id="Grupo_4781" data-name="Grupo 4781" xmlns="http://www.w3.org/2000/svg" width="10.501" height="18.104" viewBox="0 0 10.501 18.104">
  <path id="Trazado_6808" data-name="Trazado 6808" d="M1995.562,605.936c.182-.269.374-.533.541-.81a4.942,4.942,0,0,0,.669-2.159c.02-.253.022-.505.022-.757q0-4.329,0-8.659a.793.793,0,0,0-.438-.792.746.746,0,0,0-1.06.584,2.2,2.2,0,0,0-.01.256q0,4.411,0,8.823a3.709,3.709,0,0,1-.6,2.133,3.648,3.648,0,0,1-3.211,1.717,3.581,3.581,0,0,1-2.591-1.107,3.648,3.648,0,0,1-1.085-2.652q0-4.523,0-9.045a2.149,2.149,0,0,1,1.165-1.991,2.116,2.116,0,0,1,2.286.079,2.14,2.14,0,0,1,1.03,1.89q.012,4.145,0,8.289a.745.745,0,0,1-1.313.529.831.831,0,0,1-.18-.584q0-2.648,0-5.3a.774.774,0,0,0-.408-.759.745.745,0,0,0-1.083.539,1.4,1.4,0,0,0-.016.224q0,2.663,0,5.328a2.28,2.28,0,0,0,.749,1.745,2.253,2.253,0,0,0,3.753-1.719c0-2.757.008-5.514,0-8.273a3.7,3.7,0,0,0-2.957-3.692,3.568,3.568,0,0,0-3.076.7,3.658,3.658,0,0,0-1.462,3.026q-.009,4.49,0,8.982a5.249,5.249,0,0,0,7.641,4.718,10.169,10.169,0,0,0,.862-.551c.05-.032.1-.065.145-.1Z" transform="translate(-1986.297 -589.681)" fill="#373737"/>
</svg>
