<svg id="Grupo_4653" data-name="Grupo 4653" xmlns="http://www.w3.org/2000/svg" xmlns:xlink="http://www.w3.org/1999/xlink" width="20.355" height="20.87" viewBox="0 0 20.355 20.87">
  <defs>
    <clipPath id="clip-path">
      <rect id="Rectángulo_11684" data-name="Rectángulo 11684" width="20.355" height="20.87" fill="#11c744"/>
    </clipPath>
  </defs>
  <g id="Grupo_4110" data-name="Grupo 4110" clip-path="url(#clip-path)">
    <path id="Trazado_6500" data-name="Trazado 6500" d="M.457,20.87a.878.878,0,0,1-.393-1.138c.178-.639.3-1.291.439-1.937q.106-.475.217-.948c.149-.654.3-1.305.437-1.961.126-.6.277-1.2.417-1.8.064-.279.133-.555.188-.836.015-.073.033-.1.107-.109.468-.075.934-.157,1.4-.237s.961-.169,1.442-.255l1.815-.315,1.482-.255c.606-.106,1.211-.209,1.815-.317.5-.089.99-.182,1.486-.273a.453.453,0,0,0,.184-.056c-.188-.04-.373-.093-.561-.12-.6-.084-1.191-.209-1.786-.315-.663-.118-1.329-.222-1.992-.337C6.636,9.57,6.119,9.47,5.6,9.381c-.584-.1-1.171-.193-1.757-.293C3.351,9,2.858,8.922,2.368,8.822a1.953,1.953,0,0,0-.315-.044c-.244-.007-.291-.137-.337-.34C1.418,7.072,1.1,5.709.8,4.345.532,3.184.257,2.026.018.859a.668.668,0,0,1,.914-.8A14.365,14.365,0,0,1,2.394.783q2.2,1.12,4.4,2.246,1.581.808,3.157,1.622c.928.479,1.853.965,2.782,1.442.794.41,1.593.81,2.388,1.216s1.573.808,2.359,1.212q1.229.631,2.458,1.26a.657.657,0,0,1,.411.528.675.675,0,0,1-.351.746c-.362.191-.725.384-1.089.572L15.949,13.14l-2.01,1.029-3.317,1.7q-1.775.909-3.55,1.824c-1.078.552-2.155,1.1-3.233,1.653-.928.475-1.857.956-2.785,1.433-.062.033-.126.064-.189.095Z" transform="translate(0 0)" fill="#11c744"/>
  </g>
</svg>
