<svg xmlns="http://www.w3.org/2000/svg" width="19.082" height="17.265" viewBox="0 0 19.082 17.265">
  <g id="Grupo_4742" data-name="Grupo 4742" transform="translate(-1601.564 -774.197)">
    <path id="Trazado_6784" data-name="Trazado 6784" d="M1611.094,782.9c0,2.106,0,4.213,0,6.319a1.054,1.054,0,0,1-.548,1.087,1.024,1.024,0,0,1-1.183-.272c-1.211-1.02-2.422-2.04-3.654-3.035a1.46,1.46,0,0,0-.759-.276c-.578-.051-1.167,0-1.744-.056a1.708,1.708,0,0,1-1.6-1.6c-.058-1.446-.058-2.9,0-4.342a1.708,1.708,0,0,1,1.608-1.6,11.869,11.869,0,0,1,1.655-.034,1.266,1.266,0,0,0,.926-.344c1.185-1.006,2.386-1.991,3.574-2.991a1.017,1.017,0,0,1,1.183-.267,1.06,1.06,0,0,1,.543,1.091C1611.089,778.683,1611.094,780.79,1611.094,782.9Z" transform="translate(0 -0.071)" fill="#ff6113"/>
    <path id="Trazado_6785" data-name="Trazado 6785" d="M1621.438,783.418a9.279,9.279,0,0,1-4.961,7.782,2.727,2.727,0,0,1-.358.183.936.936,0,0,1-.842-1.67,14.283,14.283,0,0,0,1.987-1.436,7.624,7.624,0,0,0-1.685-12.169c-.729-.4-.941-.982-.662-1.464.3-.518.85-.589,1.567-.2A9.8,9.8,0,0,1,1621.438,783.418Z" transform="translate(-0.793 0)" fill="#ff6113"/>
    <path id="Trazado_6786" data-name="Trazado 6786" d="M1617.63,783.155a5.812,5.812,0,0,1-1.06,3.275.972.972,0,0,1-1.357.348.951.951,0,0,1-.185-1.413,3.8,3.8,0,0,0-.009-4.483.942.942,0,0,1,.17-1.383.969.969,0,0,1,1.389.343A5.792,5.792,0,0,1,1617.63,783.155Z" transform="translate(-0.793 -0.308)" fill="#ff6113"/>
  </g>
</svg>
