<svg id="Grupo_4760" data-name="Grupo 4760" xmlns="http://www.w3.org/2000/svg" width="19.652" height="17.518" viewBox="0 0 19.652 17.518">
  <g id="Grupo_4756" data-name="Grupo 4756" transform="translate(5.646 1.652)">
    <g id="Grupo_4753" data-name="Grupo 4753" transform="translate(0 6.991)">
      <rect id="Rectángulo_12349" data-name="Rectángulo 12349" width="14.007" height="0.922" fill="#373737"/>
    </g>
    <g id="Grupo_4754" data-name="Grupo 4754">
      <rect id="Rectángulo_12350" data-name="Rectángulo 12350" width="14.007" height="0.91" fill="#373737"/>
    </g>
    <g id="Grupo_4755" data-name="Grupo 4755" transform="translate(0 14.031)">
      <rect id="Rectángulo_12351" data-name="Rectángulo 12351" width="14.007" height="0.922" fill="#373737"/>
    </g>
  </g>
  <g id="Grupo_4757" data-name="Grupo 4757" transform="translate(0.295)">
    <path id="Trazado_6794" data-name="Trazado 6794" d="M1918.905,592.561h.71v-1.883H1919v-.467a2.275,2.275,0,0,0,.811-.3h.553v2.648h.611v.611h-2.073Z" transform="translate(-1918.905 -589.913)" fill="#373737"/>
  </g>
  <g id="Grupo_4758" data-name="Grupo 4758" transform="translate(0.041 6.745)">
    <path id="Trazado_6795" data-name="Trazado 6795" d="M1918.8,596.556c.83-.785,1.416-1.346,1.416-1.808a.438.438,0,0,0-.462-.492.838.838,0,0,0-.58.332l-.41-.4a1.375,1.375,0,0,1,1.092-.517,1,1,0,0,1,1.078,1.035,2.984,2.984,0,0,1-1.042,1.689,5.254,5.254,0,0,1,.544-.039h.658v.636H1918.8Z" transform="translate(-1918.764 -593.667)" fill="#373737"/>
  </g>
  <g id="Grupo_4759" data-name="Grupo 4759" transform="translate(0 14.136)">
    <path id="Trazado_6796" data-name="Trazado 6796" d="M1919.09,600.224a1.038,1.038,0,0,0,.713.327c.318,0,.528-.138.528-.384,0-.288-.169-.467-.877-.467v-.534c.584,0,.769-.174.769-.437,0-.225-.144-.359-.4-.359a.9.9,0,0,0-.611.287l-.381-.462a1.531,1.531,0,0,1,1.026-.415c.674,0,1.125.322,1.125.893a.77.77,0,0,1-.544.724v.02a.808.808,0,0,1,.647.8c0,.605-.553.949-1.211.949a1.418,1.418,0,0,1-1.134-.462Z" transform="translate(-1918.741 -597.781)" fill="#373737"/>
  </g>
</svg>
