<svg xmlns="http://www.w3.org/2000/svg" xmlns:xlink="http://www.w3.org/1999/xlink" width="21.505" height="24.459" viewBox="0 0 21.505 24.459">
  <defs>
    <clipPath id="clip-path">
      <rect id="Rectángulo_11459" data-name="Rectángulo 11459" width="21.505" height="24.459" fill="#ff6113"/>
    </clipPath>
  </defs>
  <g id="Grupo_4114" data-name="Grupo 4114" transform="translate(0 0)">
    <g id="Grupo_4113" data-name="Grupo 4113" transform="translate(0 0)" clip-path="url(#clip-path)">
      <path id="Trazado_6494" data-name="Trazado 6494" d="M3.321,17.644,3,17.548A2.16,2.16,0,0,1,1.47,15.521c-.2-2.412-.391-4.82-.593-7.233Q.629,5.27.371,2.246C.362,2.136.362,2.026.353,1.9H18.618c-.041.533-.083,1.057-.124,1.585q-.179,2.164-.363,4.328-.207,2.5-.414,4.995c-.078.97-.142,1.939-.248,2.9A2.079,2.079,0,0,1,15.732,17.6a.75.75,0,0,0-.087.041Zm1.149-8.6V14a.671.671,0,0,0,.469.721.713.713,0,0,0,.965-.74V4.1c0-.055,0-.11,0-.165a.654.654,0,0,0-.469-.579.708.708,0,0,0-.96.721c0,1.654,0,3.308,0,4.963m4.3-.023v.45q0,2.268,0,4.535a.671.671,0,0,0,.469.721.71.71,0,0,0,.96-.74V4.1a1,1,0,0,0,0-.165.655.655,0,0,0-.464-.579.708.708,0,0,0-.96.721q-.007,2.468,0,4.94m5.735.023V4.052a.715.715,0,0,0-1.415-.17,1.387,1.387,0,0,0-.018.308v9.718a2.074,2.074,0,0,0,0,.239.651.651,0,0,0,.487.584.7.7,0,0,0,.942-.721V9.042" transform="translate(1.269 6.819)" fill="#ff6113"/>
      <path id="Trazado_6495" data-name="Trazado 6495" d="M10.777,7.167q-4.845,0-9.7,0a3.194,3.194,0,0,1-.593-.051A.53.53,0,0,1,.02,6.584,12.575,12.575,0,0,1,.052,4.677,2.077,2.077,0,0,1,2.175,2.871c1.328-.009,2.66-.009,3.988,0A.283.283,0,0,0,6.5,2.637c.115-.391.248-.772.381-1.153A2.126,2.126,0,0,1,8.943,0c1.2,0,2.4,0,3.607,0a2.123,2.123,0,0,1,2.072,1.466c.142.4.276.795.4,1.2.046.161.119.2.285.2,1.3-.009,2.61,0,3.915,0A2.155,2.155,0,0,1,21.5,5.141V6.359a.733.733,0,0,1-.813.809H10.777m2.8-4.31c-.119-.354-.221-.694-.358-1.025a.644.644,0,0,0-.63-.4c-1.227,0-2.449,0-3.676,0a.654.654,0,0,0-.643.418c-.129.322-.225.657-.345,1Z" transform="translate(-0.001 0)" fill="#ff6113"/>
    </g>
  </g>
</svg>
