<svg id="Grupo_4724" data-name="Grupo 4724" xmlns="http://www.w3.org/2000/svg" width="31.961" height="31.96" viewBox="0 0 31.961 31.96">
  <path id="Trazado_6780" data-name="Trazado 6780" d="M1258.055,690.073a15.98,15.98,0,1,1,15.96-16.017A15.978,15.978,0,0,1,1258.055,690.073Zm-.03-3.135a12.845,12.845,0,1,0-12.837-12.884A12.907,12.907,0,0,0,1258.026,686.937Z" transform="translate(-1242.054 -658.112)" fill="#fff"/>
  <path id="Trazado_6781" data-name="Trazado 6781" d="M1269.432,673.484c-.79.163-1.969-.314-1.981.974-.012,1.349,1.225.8,1.952.993.1,4.2-3.876,9.658-9.87,10.058,0-.349.014-.692,0-1.034a.982.982,0,0,0-.917-1.06c-.546-.017-.94.408-.971,1.069-.015.326,0,.654,0,.981a10.709,10.709,0,0,1-9.9-9.886c.706-.173,1.9.3,1.855-1.018-.039-1.186-1.115-.823-1.828-.929a10.68,10.68,0,0,1,9.708-9.8c.1.72-.2,1.79.975,1.793,1.194,0,.865-1.076.987-1.79C1263.632,663.757,1268.981,667.719,1269.432,673.484Zm-10.822-.171c-.215-.2-.381-.356-.539-.514-1.412-1.411-2.819-2.827-4.237-4.23a.939.939,0,0,0-1.387-.1.924.924,0,0,0,.025,1.385q2.7,2.724,5.424,5.423a.893.893,0,0,0,1.339.035c1.074-1.042,2.143-2.092,3.162-3.187a1.1,1.1,0,0,0,.183-.948,1.115,1.115,0,0,0-.764-.591,1.24,1.24,0,0,0-.855.379C1260.16,671.715,1259.4,672.512,1258.609,673.314Z" transform="translate(-1242.605 -658.666)" fill="#fff"/>
</svg>
