<svg id="Grupo_17" data-name="Grupo 17" xmlns="http://www.w3.org/2000/svg" xmlns:xlink="http://www.w3.org/1999/xlink" width="23.045" height="18.978" viewBox="0 0 23.045 18.978">
  <defs>
    <clipPath id="clip-path">
      <rect id="Rectángulo_18" data-name="Rectángulo 18" width="23.045" height="18.978" fill="none"/>
    </clipPath>
  </defs>
  <g id="Grupo_4" data-name="Grupo 4" clip-path="url(#clip-path)">
    <path id="Trazado_2" data-name="Trazado 2" d="M0,6.192c.06-.234.109-.47.182-.7a4.457,4.457,0,0,1,3.864-2.92c.223-.022.448-.035.672-.035q5.816,0,11.632,0h.331c-.225-.2-.4-.355-.583-.513-.25-.222-.5-.44-.745-.67A.74.74,0,0,1,15.338.274.975.975,0,0,1,16.556.163,1.623,1.623,0,0,1,16.74.31Q18.077,1.5,19.413,2.7a.768.768,0,0,1,0,1.3c-.938.839-1.874,1.68-2.817,2.514a.942.942,0,0,1-1.527-.33.728.728,0,0,1,.245-.81c.386-.347.774-.692,1.161-1.038.052-.046.1-.1.174-.166-.1-.006-.159-.013-.222-.013q-5.872,0-11.745,0A2.733,2.733,0,0,0,1.869,6.133,2.615,2.615,0,0,0,1.8,6.75c0,1.829-.013,3.658,0,5.487a.873.873,0,0,1-.742.9.934.934,0,0,1-1.034-.566C.026,12.56.011,12.553,0,12.545V6.192" transform="translate(0 0)" fill="#fff"/>
    <path id="Trazado_3" data-name="Trazado 3" d="M27.9,59.977c.081.079.128.128.179.173.376.337.759.667,1.126,1.012a.736.736,0,0,1-.005,1.093.976.976,0,0,1-1.2.092,1.868,1.868,0,0,1-.2-.162q-1.321-1.179-2.642-2.359a.77.77,0,0,1-.005-1.311c.938-.839,1.874-1.68,2.817-2.514a.942.942,0,0,1,1.525.337.732.732,0,0,1-.25.809l-1.161,1.038c-.051.045-.1.094-.183.177h.239q5.861,0,11.723,0a2.736,2.736,0,0,0,2.827-1.986,2.631,2.631,0,0,0,.065-.618c0-1.856,0-3.712,0-5.568a.835.835,0,0,1,.762-.819.91.91,0,0,1,1.01.6.831.831,0,0,1,.027.238q0,2.864,0,5.728A4.241,4.241,0,0,1,40.82,59.9a6.454,6.454,0,0,1-.982.077q-5.816.008-11.633,0Z" transform="translate(-21.512 -43.534)" fill="#fff"/>
  </g>
</svg>
