<svg xmlns="http://www.w3.org/2000/svg" xmlns:xlink="http://www.w3.org/1999/xlink" width="24.489" height="24.504" viewBox="0 0 24.489 24.504">
  <defs>
    <clipPath id="clip-path">
      <rect id="Rectángulo_11657" data-name="Rectángulo 11657" width="24.489" height="24.504" fill="#fff"/>
    </clipPath>
  </defs>
  <g id="Grupo_4400" data-name="Grupo 4400" transform="translate(60 372)" style="isolation: isolate">
    <g id="Grupo_4087" data-name="Grupo 4087" transform="translate(-60 -372)" clip-path="url(#clip-path)">
      <path id="Trazado_6491" data-name="Trazado 6491" d="M24.49,11.253v1.77c-.016.069-.037.137-.046.207-.07.488-.107.982-.211,1.462a12.225,12.225,0,0,1-17.58,8.235.579.579,0,0,0-.374-.046q-2.445.624-4.886,1.27c-.418.11-.832.235-1.248.353H0C.55,22.5,1.1,20.49,1.654,18.486a.621.621,0,0,0-.06-.51A11.957,11.957,0,0,1,.313,9.843,11.53,11.53,0,0,1,5.248,2.262,12.119,12.119,0,0,1,14.082.128a11.6,11.6,0,0,1,6.991,3.583,12.02,12.02,0,0,1,3.278,6.6c.047.312.092.625.138.938M2.954,21.547c.086-.014.14-.018.191-.031,1.13-.293,2.261-.584,3.389-.884a.518.518,0,0,1,.444.064,10.045,10.045,0,0,0,4.8,1.5,9.93,9.93,0,0,0,4.25-.713,10.012,10.012,0,0,0,6.3-10.905,9.691,9.691,0,0,0-3.3-6.005,9.891,9.891,0,0,0-8.5-2.4A9.621,9.621,0,0,0,4.4,5.835,9.971,9.971,0,0,0,2.21,12.989,9.659,9.659,0,0,0,3.817,17.6a.572.572,0,0,1,.082.526c-.32,1.122-.624,2.25-.946,3.417" transform="translate(0 0)" fill="#fff"/>
      <path id="Trazado_6492" data-name="Trazado 6492" d="M18.769,21.36a5.832,5.832,0,0,1-1.993-.431,11.676,11.676,0,0,1-5.552-4.121A10.121,10.121,0,0,1,9.6,14.237a3.55,3.55,0,0,1,.778-3.947,1.246,1.246,0,0,1,.947-.38,4.844,4.844,0,0,1,.667.035c.246.031.353.233.438.431.249.577.487,1.158.73,1.736.089.213.173.427.27.636a.534.534,0,0,1-.033.567c-.224.317-.452.635-.7.935-.281.342-.3.426-.071.8a8.238,8.238,0,0,0,4.053,3.487.521.521,0,0,0,.747-.185c.283-.345.567-.689.842-1.04a.483.483,0,0,1,.656-.211,1.765,1.765,0,0,1,.2.07c.749.33,1.5.667,2.248.992a.507.507,0,0,1,.341.539,2.384,2.384,0,0,1-1.211,2.158,3.327,3.327,0,0,1-1.738.5" transform="translate(-3.218 -3.425)" fill="#fff"/>
    </g>
  </g>
</svg>
