<svg id="Grupo_4229" data-name="Grupo 4229" xmlns="http://www.w3.org/2000/svg" xmlns:xlink="http://www.w3.org/1999/xlink" width="30.354" height="27" viewBox="0 0 30.354 27">
  <defs>
    <clipPath id="clip-path">
      <rect id="Rectángulo_11558" data-name="Rectángulo 11558" width="30.354" height="27" fill="#fff"/>
    </clipPath>
  </defs>
  <g id="Grupo_14" data-name="Grupo 14" clip-path="url(#clip-path)">
    <path id="Trazado_6469" data-name="Trazado 6469" d="M15.133,27q-6.292,0-12.583,0A2.5,2.5,0,0,1,.087,25.109,2.7,2.7,0,0,1,.422,23q2.955-5.089,5.887-10.191,3.291-5.7,6.586-11.4A2.546,2.546,0,0,1,17.01.794a3.392,3.392,0,0,1,.469.65q6.238,10.793,12.466,21.592A2.559,2.559,0,0,1,27.632,27q-6.249.008-12.5,0ZM13.5,12.975h.03c0,1.228-.035,2.458.013,3.684a1.385,1.385,0,0,0,1.344,1.334,1.569,1.569,0,0,0,1.854-.971,3.024,3.024,0,0,0,.114-.916c.009-2.076.006-4.152,0-6.228a3.824,3.824,0,0,0-.047-.675A1.346,1.346,0,0,0,15.72,8.037c-1.347-.262-2.241.333-2.226,1.718.012,1.073,0,2.147,0,3.22m1.679,10.593a1.651,1.651,0,0,0,1.664-1.661,1.664,1.664,0,1,0-3.328,0,1.651,1.651,0,0,0,1.664,1.661" transform="translate(0 0)" fill="#fff"/>
  </g>
</svg>
