<svg xmlns="http://www.w3.org/2000/svg" xmlns:xlink="http://www.w3.org/1999/xlink" width="23.538" height="24.743" viewBox="0 0 23.538 24.743">
  <defs>
    <clipPath id="clip-path">
      <rect id="Rectángulo_11810" data-name="Rectángulo 11810" width="23.538" height="24.743" transform="translate(0 0)" fill="#ff6113"/>
    </clipPath>
  </defs>
  <g id="Grupo_4177" data-name="Grupo 4177" transform="translate(0 0)" clip-path="url(#clip-path)">
    <path id="Trazado_6618" data-name="Trazado 6618" d="M.032,19.765c0-.052-.008-.1-.008-.155q0-6.552,0-13.105c.047-.033.017-.048-.014-.064A5.143,5.143,0,0,1,3.846,1.389a4.125,4.125,0,0,1,1.211-.133c.444.014.448,0,.443-.432A.858.858,0,0,1,5.762.187a.708.708,0,0,1,.8-.116A.645.645,0,0,1,7,.684c.012.172.006.345.008.518,0,.044.01.068.053.027l9.092,0c.339,0,.346,0,.337-.332a.857.857,0,0,1,.27-.706.8.8,0,0,1,.779-.133A.631.631,0,0,1,18,.688c.007.571.007.558.569.574A4.908,4.908,0,0,1,21.793,2.53a5.145,5.145,0,0,1,1.336,1.86,4.79,4.79,0,0,1,.324,1.233c.027.2.035.406.049.61l.024.065q0,3.129,0,6.259c-.009.022-.017.043-.025.065a.787.787,0,0,1-.656.722A.752.752,0,0,1,22,12.672c.031-.015.06-.031.014-.063,0-.941,0-1.883,0-2.824,0-.155-.035-.206-.2-.2q-10.128.008-20.257.007a.222.222,0,0,0-.027-.019l-.013.015a.2.2,0,0,0,.026.024q0,5.106,0,10.211l-.03.065a4.895,4.895,0,0,0,.206.924,3.67,3.67,0,0,0,2.756,2.379,1.106,1.106,0,0,0,.395.055l.065-.03,6.468.009.064.023a.7.7,0,0,1,.615.88.735.735,0,0,1-.78.611c-1.691,0-3.381,0-5.072,0-.4,0-.793,0-1.19-.006-.034-.043-.05-.016-.064.017a4.723,4.723,0,0,1-2.22-.589A4.994,4.994,0,0,1,.2,20.973c-.088-.315-.105-.64-.2-.951a.243.243,0,0,1,.046-.192c0-.009.008-.018,0-.024a.214.214,0,0,0-.025-.041M1.56,8.064l20.246,0a.113.113,0,0,1,.026,0c.153.025.184-.049.182-.189-.008-.562,0-1.124-.006-1.685.045-.028.016-.045-.009-.062a4.66,4.66,0,0,0-.064-.556,3.588,3.588,0,0,0-3.469-2.812c-.467,0-.481,0-.461.465a.708.708,0,0,1-.528.72.739.739,0,0,1-.872-.36A.952.952,0,0,1,16.5,3c.032-.223-.053-.262-.263-.261q-4.586.009-9.171,0c-.043-.041-.054-.018-.053.027,0,.138-.005.276-.006.415a.8.8,0,0,1-.749.824A.82.82,0,0,1,5.5,3.187c0-.1,0-.19,0-.285s-.009-.14-.122-.141a4.147,4.147,0,0,0-1.333.152A3.573,3.573,0,0,0,1.623,5.452a1.037,1.037,0,0,0-.068.679c-.025.017-.055.033-.01.062q0,.93,0,1.861l-.029.025.018.016.024-.031" fill="#ff6113"/>
    <path id="Trazado_6619" data-name="Trazado 6619" d="M23.5,19.494a5.241,5.241,0,1,1-10.472-.331,5.157,5.157,0,0,1,4.62-4.906,5.062,5.062,0,0,1,4.1,1.3A5.194,5.194,0,0,1,23.5,19.494M18.265,15.78a3.67,3.67,0,0,0-3.738,3.437,3.744,3.744,0,1,0,7.465-.028,3.674,3.674,0,0,0-3.727-3.409" fill="#ff6113"/>
    <path id="Trazado_6620" data-name="Trazado 6620" d="M6.484,19.613a4.258,4.258,0,0,0-.542,0,.8.8,0,0,1-.764-.756.74.74,0,0,1,.738-.75,6.313,6.313,0,0,1,1.381.053.7.7,0,0,1,.541.8.788.788,0,0,1-.734.647c-.206.008-.413,0-.62,0" fill="#ff6113"/>
    <path id="Trazado_6621" data-name="Trazado 6621" d="M6.495,14.69c-.189,0-.38,0-.569,0a.714.714,0,0,1-.738-.638.732.732,0,0,1,.67-.853,6.812,6.812,0,0,1,1.383.032.731.731,0,0,1,.6.8.778.778,0,0,1-.7.654c-.216.005-.432,0-.646,0" fill="#ff6113"/>
    <path id="Trazado_6622" data-name="Trazado 6622" d="M11.748,14.691a5.174,5.174,0,0,0-.543,0,.742.742,0,0,1-.774-.731.719.719,0,0,1,.754-.771,9.809,9.809,0,0,1,1.163,0,.725.725,0,0,1,.729.823.749.749,0,0,1-.76.675c-.189-.016-.379,0-.569,0" fill="#ff6113"/>
    <path id="Trazado_6623" data-name="Trazado 6623" d="M22.014,12.608c.046.032.017.048-.014.063,0-.021.009-.042.014-.063" fill="#ff6113"/>
    <path id="Trazado_6624" data-name="Trazado 6624" d="M23.5,12.622c.007-.022.016-.043.025-.065.024.034,0,.051-.025.065" fill="#ff6113"/>
    <path id="Trazado_6625" data-name="Trazado 6625" d="M.012,6.441c.031.016.06.031.014.064C.021,6.483.017,6.462.012,6.441" fill="#ff6113"/>
    <path id="Trazado_6626" data-name="Trazado 6626" d="M23.526,6.3,23.5,6.232c.027.015.047.032.024.065" fill="#ff6113"/>
    <path id="Trazado_6627" data-name="Trazado 6627" d="M.032,19.765a.242.242,0,0,1,.025.04c0,.007,0,.016,0,.025C.025,19.814,0,19.8.032,19.765" fill="#ff6113"/>
    <path id="Trazado_6628" data-name="Trazado 6628" d="M1.516,19.883l.03-.065c.021.036,0,.053-.03.065" fill="#ff6113"/>
    <path id="Trazado_6629" data-name="Trazado 6629" d="M4.938,23.211l-.065.03c.012-.03.029-.051.065-.03" fill="#ff6113"/>
    <path id="Trazado_6630" data-name="Trazado 6630" d="M7.065,1.228c-.044.042-.054.017-.054-.027l.054.027" fill="#ff6113"/>
    <path id="Trazado_6631" data-name="Trazado 6631" d="M11.47,23.242l-.065-.023c.032-.021.049,0,.065.023" fill="#ff6113"/>
    <path id="Trazado_6632" data-name="Trazado 6632" d="M4.979,24.743c.014-.033.03-.06.064-.018l-.064.018" fill="#ff6113"/>
    <path id="Trazado_6633" data-name="Trazado 6633" d="M1.543,9.607a.19.19,0,0,1-.025-.024l.012-.016a.283.283,0,0,1,.028.02l0,.017-.018,0" fill="#ff6113"/>
    <path id="Trazado_6634" data-name="Trazado 6634" d="M1.56,8.064,1.536,8.1l-.018-.016.029-.025.013.01" fill="#ff6113"/>
    <path id="Trazado_6635" data-name="Trazado 6635" d="M22.008,6.192,22,6.13c.025.017.054.034.009.062" fill="#ff6113"/>
    <path id="Trazado_6636" data-name="Trazado 6636" d="M1.555,6.131c0,.021-.007.041-.01.062-.045-.028-.015-.045.01-.062" fill="#ff6113"/>
    <path id="Trazado_6637" data-name="Trazado 6637" d="M7.065,2.742l-.053.027c0-.045.01-.069.053-.027" fill="#ff6113"/>
    <path id="Trazado_6638" data-name="Trazado 6638" d="M17.531,18.4c0-.336.015-.674,0-1.009a.726.726,0,0,1,.682-.771.769.769,0,0,1,.821.783c.015.517.011,1.035,0,1.552a.482.482,0,0,0,.162.38,7.33,7.33,0,0,1,.707.745.759.759,0,0,1-.133.964.73.73,0,0,1-.971.008c-.368-.352-.725-.715-1.082-1.078a.63.63,0,0,1-.182-.461c0-.371,0-.742,0-1.113Z" fill="#ff6113"/>
  </g>
</svg>
