<svg xmlns="http://www.w3.org/2000/svg" width="26.099" height="26.075" viewBox="0 0 26.099 26.075">
  <g id="Grupo_5234" data-name="Grupo 5234" transform="translate(-1107.102 -785.587)">
    <path id="Trazado_6771" data-name="Trazado 6771" d="M1133.2,797.6v2.089c-.039.011-.045.042-.052.077-.085.422-.115.852-.193,1.276a12.774,12.774,0,0,1-2.982,6.136,13.7,13.7,0,0,1-2.231,2.037,12.982,12.982,0,0,1-3.133,1.666,11.048,11.048,0,0,1-2.507.635c-.309.037-.616.1-.924.146h-2.038c-.034-.072-.1-.053-.156-.05a5.338,5.338,0,0,1-1.315-.167,12.961,12.961,0,0,1-3.234-1.093,13.84,13.84,0,0,1-2.215-1.379,12.513,12.513,0,0,1-2.221-2.158,13.511,13.511,0,0,1-1.829-3.028,12.477,12.477,0,0,1-1.038-4.232,13.065,13.065,0,0,1,4.27-10.6,13.481,13.481,0,0,1,2.655-1.87,12.548,12.548,0,0,1,3.4-1.209,14.24,14.24,0,0,1,2.586-.283,12.39,12.39,0,0,1,2.276.188,13.218,13.218,0,0,1,2.183.556,12.831,12.831,0,0,1,2.188,1.011,12.28,12.28,0,0,1,2.294,1.689,13.713,13.713,0,0,1,1.314,1.4,12.746,12.746,0,0,1,2.136,3.823,12.215,12.215,0,0,1,.623,2.6A1.649,1.649,0,0,0,1133.2,797.6Zm-13.086,1.426c-.553.521-1.1,1.054-1.663,1.56-.265.237-.5.508-.776.729-.066.053-.134.175-.248.05-.517-.567-1.03-1.138-1.555-1.7-.7-.746-1.415-1.476-2.11-2.226a1.792,1.792,0,0,0-1.862-.346,1.723,1.723,0,0,0-.58,2.791c.454.5.916.993,1.381,1.484.72.76,1.426,1.533,2.144,2.3.735.782,1.476,1.556,2.2,2.353.309.343.318.337.652.025q1.214-1.132,2.427-2.267c.7-.652,1.41-1.3,2.1-1.953q1.222-1.157,2.457-2.3c.49-.45.969-.913,1.459-1.363.683-.628,1.347-1.276,2.021-1.915a2.258,2.258,0,0,1,.229-.193,1.764,1.764,0,0,0,.771-1.473,1.609,1.609,0,0,0-.8-1.449,1.751,1.751,0,0,0-2.131.2c-.362.355-.737.7-1.11,1.042-1,.919-1.994,1.834-2.988,2.755-.628.582-1.25,1.171-1.875,1.757-.034-.011-.046.011-.053.038l-.049.048C1120.13,798.98,1120.109,798.993,1120.115,799.027Z" fill="#fff"/>
  </g>
</svg>
