<svg id="Grupo_4095" data-name="Grupo 4095" xmlns="http://www.w3.org/2000/svg" xmlns:xlink="http://www.w3.org/1999/xlink" width="29.477" height="29.477" viewBox="0 0 29.477 29.477">
  <defs>
    <clipPath id="clip-path">
      <rect id="Rectángulo_11673" data-name="Rectángulo 11673" width="29.477" height="29.477" fill="#fff"/>
    </clipPath>
  </defs>
  <g id="Grupo_4095-2" data-name="Grupo 4095" clip-path="url(#clip-path)">
    <path id="Trazado_6494" data-name="Trazado 6494" d="M4.011,3.992V25.482H4.43q4.159,0,8.316,0a1.986,1.986,0,0,1,.568,3.894,2.741,2.741,0,0,1-.735.092c-2.946.006-5.893.014-8.839,0A3.559,3.559,0,0,1,.092,26.627a4.576,4.576,0,0,1-.088-1Q0,14.738,0,3.848A3.587,3.587,0,0,1,2.85.091,4.45,4.45,0,0,1,3.812.005q4.363-.01,8.727,0A2,2,0,0,1,14.673,1.5a1.974,1.974,0,0,1-1.887,2.494c-2.784.007-5.569,0-8.354,0H4.011" transform="translate(0 0)" fill="#fff"/>
    <path id="Trazado_6495" data-name="Trazado 6495" d="M24.129,17.858h-.5q-5.836,0-11.672,0a2.007,2.007,0,1,1,.027-4.01q5.295-.005,10.591,0h1.546c-.131-.142-.213-.236-.3-.324-.923-.924-1.854-1.839-2.766-2.772a1.991,1.991,0,0,1,.792-3.357,1.939,1.939,0,0,1,2.045.545q2.506,2.5,5.01,5.01c.484.483.971.963,1.45,1.451a1.979,1.979,0,0,1,.007,2.9q-3.236,3.251-6.487,6.486a2,2,0,1,1-2.824-2.822c.906-.923,1.827-1.83,2.74-2.744.095-.095.185-.193.341-.358" transform="translate(-1.509 -1.114)" fill="#fff"/>
  </g>
</svg>
