<svg id="Grupo_4642" data-name="Grupo 4642" xmlns="http://www.w3.org/2000/svg" xmlns:xlink="http://www.w3.org/1999/xlink" width="14.848" height="14.061" viewBox="0 0 14.848 14.061">
  <defs>
    <clipPath id="clip-path">
      <rect id="Rectángulo_11682" data-name="Rectángulo 11682" width="14.848" height="14.061" fill="#fff"/>
    </clipPath>
  </defs>
  <g id="Grupo_4104" data-name="Grupo 4104" transform="translate(0 0)" clip-path="url(#clip-path)">
    <path id="Trazado_6498" data-name="Trazado 6498" d="M0,8.943c.057-.287.1-.578.173-.861a4.448,4.448,0,0,1,.949-1.8c.147-.173.307-.335.467-.5Q4.346,3.025,7.1.266A.714.714,0,0,1,7.888.04a.673.673,0,0,1,.3,1.048,2.132,2.132,0,0,1-.157.17Q5.225,4.068,2.414,6.877a3.351,3.351,0,0,0-.979,1.74,3.284,3.284,0,0,0,.953,3.139,3.224,3.224,0,0,0,2.356.947,3.287,3.287,0,0,0,2.379-1q2.885-2.879,5.762-5.763a1.94,1.94,0,0,0,.526-2.011A1.91,1.91,0,0,0,11.9,2.522a1.924,1.924,0,0,0-1.86.548Q7.394,5.7,4.76,8.35a.671.671,0,0,0,.5,1.173.744.744,0,0,0,.486-.258Q7.431,7.578,9.118,5.89a.7.7,0,0,1,.745-.224A.673.673,0,0,1,10.209,6.7a1.255,1.255,0,0,1-.133.152L6.682,10.247a2.055,2.055,0,0,1-1.59.636A2.031,2.031,0,0,1,3.8,7.4Q6.429,4.76,9.067,2.127A3.333,3.333,0,0,1,13.3,1.658a3.209,3.209,0,0,1,1.516,2.4,3.292,3.292,0,0,1-1,2.859Q10.967,9.787,8.1,12.643a4.668,4.668,0,0,1-2.474,1.328,4.62,4.62,0,0,1-3.2-.512A4.606,4.606,0,0,1,.23,10.781c-.094-.291-.135-.6-.2-.9-.01-.051-.02-.1-.03-.154V8.943" transform="translate(0 0)" fill="#fff"/>
  </g>
</svg>
