<svg xmlns="http://www.w3.org/2000/svg" width="25.418" height="25.425" viewBox="0 0 25.418 25.425">
  <g id="Grupo_4966" data-name="Grupo 4966" transform="translate(-736.046 -167.917)">
    <g id="Grupo_4965" data-name="Grupo 4965" transform="translate(736.046 167.917)">
      <path id="Trazado_6787" data-name="Trazado 6787" d="M1577.711,786.487v-.431q0-5.035,0-10.068a1.731,1.731,0,1,1,3.459.023q0,4.569,0,9.135v1.334c.124-.113.2-.183.28-.258.8-.8,1.585-1.6,2.389-2.387a1.718,1.718,0,0,1,2.9.682,1.674,1.674,0,0,1-.469,1.765q-2.16,2.162-4.322,4.322c-.417.417-.831.837-1.252,1.249a1.707,1.707,0,0,1-2.5.007q-2.8-2.79-5.594-5.6a1.722,1.722,0,1,1,2.434-2.436c.795.782,1.579,1.576,2.368,2.364C1577.483,786.275,1577.569,786.353,1577.711,786.487Z" transform="translate(-1566.73 -774.197)" fill="#0079ff"/>
      <path id="Trazado_6788" data-name="Trazado 6788" d="M1593.516,790.7h0q0-1.212,0-2.423a2.34,2.34,0,0,0-.078-.634,1.714,1.714,0,0,0-3.36.49V790.7h0v1.231h-18.537V790.7h0q0-1.3,0-2.6a1.7,1.7,0,0,0-2.151-1.628,1.727,1.727,0,0,0-1.288,1.841q0,1.541,0,3.084h0v.708a3.9,3.9,0,0,0,.075.829,3.091,3.091,0,0,0,3.24,2.456q9.393,0,18.786,0a3.927,3.927,0,0,0,.862-.077,3.069,3.069,0,0,0,2.452-3.146C1593.519,791.682,1593.516,791.193,1593.516,790.7Z" transform="translate(-1568.101 -769.971)" fill="#0079ff"/>
    </g>
  </g>
</svg>
