<svg xmlns="http://www.w3.org/2000/svg" width="16.994" height="16.093" viewBox="0 0 16.994 16.093">
  <g id="Grupo_4674" data-name="Grupo 4674" transform="translate(0 2)">
    <path id="Trazado_6735" data-name="Trazado 6735" d="M836.269,907.689c.065-.329.116-.661.2-.986a5.082,5.082,0,0,1,1.087-2.061c.168-.2.351-.384.534-.568q3.156-3.158,6.312-6.316a.818.818,0,0,1,.9-.258.77.77,0,0,1,.346,1.2,2.269,2.269,0,0,1-.179.2q-3.215,3.215-6.432,6.43a3.832,3.832,0,0,0-1.121,1.99,3.761,3.761,0,0,0,1.09,3.593,3.691,3.691,0,0,0,2.7,1.083,3.762,3.762,0,0,0,2.723-1.143q3.3-3.295,6.595-6.6a2.219,2.219,0,0,0,.6-2.3,2.309,2.309,0,0,0-3.855-.983q-3.03,3.013-6.045,6.042a.768.768,0,0,0,.571,1.343.859.859,0,0,0,.557-.3q1.929-1.931,3.859-3.863a.8.8,0,0,1,.852-.257.77.77,0,0,1,.4,1.183,1.452,1.452,0,0,1-.153.174q-1.942,1.943-3.884,3.885a2.32,2.32,0,0,1-4-1.369,2.307,2.307,0,0,1,.7-1.893q3.014-3.017,6.033-6.031a3.813,3.813,0,0,1,4.847-.536,3.675,3.675,0,0,1,1.736,2.751,3.772,3.772,0,0,1-1.139,3.272q-3.268,3.28-6.547,6.549a5.419,5.419,0,0,1-6.5.934,5.273,5.273,0,0,1-2.512-3.065c-.108-.333-.153-.687-.228-1.031-.013-.059-.023-.118-.034-.177Z" transform="translate(-836.269 -899.453)" fill="#ff6113"/>
  </g>
</svg>
