<svg xmlns="http://www.w3.org/2000/svg" width="16.768" height="15.568" viewBox="0 0 16.768 15.568">
  <g id="Grupo_4801" data-name="Grupo 4801" transform="translate(0 0)">
    <path id="Trazado_6734" data-name="Trazado 6734" d="M1431.9,719.577a4.44,4.44,0,0,1,.051-.724,5.374,5.374,0,0,1,5.468-4.645c2.28-.02,4.561,0,6.842,0h.7c-1.082-1.081-2.051-2.036-3-3.011a1.777,1.777,0,0,1-.44-.719,1.07,1.07,0,0,1,1.858-.9q1.084,1.079,2.166,2.16,1.356,1.355,2.709,2.713a1.1,1.1,0,0,1,.012,1.706q-2.416,2.494-4.861,4.959a1.239,1.239,0,0,1-.609.326.941.941,0,0,1-1.1-.557,1.237,1.237,0,0,1,.279-1.375c.813-.826,1.637-1.641,2.456-2.462.147-.147.288-.3.506-.527h-.583q-3.415,0-6.83,0a3.46,3.46,0,0,0-3.454,3.449q0,1.857,0,3.713a1.083,1.083,0,0,1-1.083,1.084h0a1.084,1.084,0,0,1-1.084-1.084Q1431.9,721.626,1431.9,719.577Z" transform="translate(-1431.898 -709.191)" fill="#373737"/>
  </g>
</svg>
