<svg xmlns="http://www.w3.org/2000/svg" xmlns:xlink="http://www.w3.org/1999/xlink" width="26.45" height="21.707" viewBox="0 0 26.45 21.707">
  <defs>
    <clipPath id="clip-path">
      <rect id="Rectángulo_11930" data-name="Rectángulo 11930" width="26.45" height="21.707" fill="#6ec5ff"/>
    </clipPath>
  </defs>
  <g id="Grupo_4558" data-name="Grupo 4558" transform="translate(0 -0.001)">
    <g id="Grupo_4274" data-name="Grupo 4274" transform="translate(0 0.001)" clip-path="url(#clip-path)">
      <path id="Trazado_6673" data-name="Trazado 6673" d="M0,4.039A3.983,3.983,0,0,1,2.458,1.5,14.685,14.685,0,0,1,6.469.325,24.766,24.766,0,0,1,11.457.017,19.3,19.3,0,0,1,18.4,1.354a5.47,5.47,0,0,1,2.19,1.5,8.67,8.67,0,0,1,.484.733C20.6,3.479,20.2,3.366,19.8,3.3a9.919,9.919,0,0,0-9.378,3.185A9.543,9.543,0,0,0,8.97,8.576a.327.327,0,0,1-.247.152,17.116,17.116,0,0,1-6.611-1.6A4.893,4.893,0,0,1,.59,5.949,3.178,3.178,0,0,1,0,4.762Z" transform="translate(0 0)" fill="#6ec5ff"/>
      <path id="Trazado_6674" data-name="Trazado 6674" d="M0,24.073a11.383,11.383,0,0,0,5.1,2.211c1.066.218,2.154.329,3.234.473.169.023.2.117.254.239a9.921,9.921,0,0,0,2.536,3.658c.4.367.846.692,1.29,1.052-.147.012-.279.028-.412.034a22.523,22.523,0,0,1-8.543-1.05,10.366,10.366,0,0,1-1.387-.613A3.658,3.658,0,0,1,0,27.741Z" transform="translate(0 -10.064)" fill="#6ec5ff"/>
      <path id="Trazado_6675" data-name="Trazado 6675" d="M0,12.976a11.515,11.515,0,0,0,5.119,2.217c1.031.214,2.079.349,3.157.525a10.172,10.172,0,0,0-.222,4.861c-.659-.095-1.279-.166-1.892-.276a14.591,14.591,0,0,1-3.637-1.089A5.926,5.926,0,0,1,.761,18.023,3.112,3.112,0,0,1,0,16.644Z" transform="translate(0 -5.425)" fill="#6ec5ff"/>
      <path id="Trazado_6676" data-name="Trazado 6676" d="M16.157,16.53a8.524,8.524,0,1,1,8.505,8.523,8.517,8.517,0,0,1-8.505-8.523m7.73-4.237-.292.051a2.5,2.5,0,0,0-2.015,2.544,2.466,2.466,0,0,0,2.093,2.363c.552.064,1.116.041,1.674.055a.953.953,0,0,1,.89,1.224.923.923,0,0,1-.917.69c-.972.008-1.945,0-2.917.005a.773.773,0,1,0-.049,1.542c.513,0,1.026,0,1.554,0,0,.163-.006.292,0,.419a.773.773,0,0,0,1.546,0c.009-.136,0-.273,0-.414.106-.02.19-.038.274-.052a2.5,2.5,0,0,0,2.053-2.51,2.459,2.459,0,0,0-2.106-2.4c-.544-.065-1.1-.04-1.648-.053a.963.963,0,0,1-.888-.632A.946.946,0,0,1,24,13.844c.981-.016,1.962,0,2.943-.008a.8.8,0,0,0,.826-.534.771.771,0,0,0-.751-1.008c-.514-.007-1.028,0-1.538,0-.128-.9-.326-1.186-.8-1.185s-.709.323-.793,1.186" transform="translate(-6.754 -3.347)" fill="#6ec5ff"/>
    </g>
  </g>
</svg>
