<svg id="Grupo_53" data-name="Grupo 53" xmlns="http://www.w3.org/2000/svg" xmlns:xlink="http://www.w3.org/1999/xlink" width="15.003" height="18.412" viewBox="0 0 15.003 18.412">
  <defs>
    <clipPath id="clip-path">
      <rect id="Rectángulo_11613" data-name="Rectángulo 11613" width="15.003" height="18.412" fill="#373737"/>
    </clipPath>
  </defs>
  <g id="Grupo_38" data-name="Grupo 38" clip-path="url(#clip-path)">
    <path id="Trazado_6477" data-name="Trazado 6477" d="M2.648,0h7.728c.045.054.085.112.135.161q2.168,2.164,4.34,4.325A.459.459,0,0,1,15,4.845q-.008,2.866,0,5.732c0,1.923-.007,3.845,0,5.768a2.021,2.021,0,0,1-2.071,2.067c-3.33-.025-6.66-.009-9.99-.01a1.954,1.954,0,0,1-1.8-1.2,2.392,2.392,0,0,1-.149-1c0-.207,0-.414,0-.619a2.7,2.7,0,0,1-.383-.037A.809.809,0,0,1,0,14.678c0-.617,0-1.234,0-1.851,0-.91,0-1.821,0-2.731a.808.808,0,0,1,.616-.874A2.636,2.636,0,0,1,.99,9.188V8.974c0-2.36,0-4.72.006-7.079A1.869,1.869,0,0,1,1.732.421,2.5,2.5,0,0,1,2.648,0M9.881,1.2c-.072,0-.114-.007-.155-.007q-3.351.006-6.7.015a1.089,1.089,0,0,0-.284.031.764.764,0,0,0-.548.826q0,3.486,0,6.972c0,.051.007.1.012.163h.231c3.019,0,6.037.007,9.056-.007a.864.864,0,0,1,.9.906c-.016,1.5-.021,2.995,0,4.492a.888.888,0,0,1-.972.982c-2.995-.019-5.989-.008-8.984-.008H2.21c0,.344-.018.667.005.987a.651.651,0,0,0,.495.6,1.406,1.406,0,0,0,.407.045q4.33,0,8.661,0c.4,0,.791,0,1.186,0a.706.706,0,0,0,.677-.325,1.15,1.15,0,0,0,.144-.541q0-5.525-.028-11.05c0-.052-.008-.1-.013-.168h-.207c-.719,0-1.438.021-2.156.007a1.838,1.838,0,0,1-.711-.141,1.338,1.338,0,0,1-.788-1.319c0-.749,0-1.5,0-2.246V1.2M4.955,14.125c.466,0,.916.032,1.359-.008a1.591,1.591,0,0,0,1.278-.692,1.915,1.915,0,0,0,.246-1.38,1.328,1.328,0,0,0-.977-1.124,4.6,4.6,0,0,0-1.906-.061ZM2.819,12.946c.093,0,.158,0,.223,0a1.83,1.83,0,0,0,.82-.15,1,1,0,0,0,.587-1.035.911.911,0,0,0-.659-.866A4.108,4.108,0,0,0,2.1,10.859v3.258h.724Zm6.3-1.519h1.261v-.6H8.39v3.283h.735v-1.32h1.169v-.608H9.124Z" transform="translate(0)" fill="#373737"/>
    <path id="Trazado_6478" data-name="Trazado 6478" d="M118.576,238.256v-1.529c0-.173-.006-.347,0-.52a.168.168,0,0,1,.083-.127,1.015,1.015,0,0,1,1.259.709,1.461,1.461,0,0,1-.048.863,1.075,1.075,0,0,1-1.3.6" transform="translate(-112.881 -224.704)" fill="#373737"/>
    <path id="Trazado_6479" data-name="Trazado 6479" d="M58.781,237.517c0-.35,0-.642,0-.934a.15.15,0,0,1,.1-.106,1.718,1.718,0,0,1,.375,0,.461.461,0,0,1,.418.4.483.483,0,0,1-.293.54,3.794,3.794,0,0,1-.6.1" transform="translate(-55.958 -225.112)" fill="#373737"/>
  </g>
</svg>
