<svg xmlns="http://www.w3.org/2000/svg" width="19.28" height="19.285" viewBox="0 0 19.28 19.285">
  <g id="Grupo_4980" data-name="Grupo 4980" transform="translate(0 0)">
    <g id="Grupo_4965" data-name="Grupo 4965" transform="translate(0)">
      <path id="Trazado_6787" data-name="Trazado 6787" d="M4.286,9.322V9q0-3.819,0-7.637a1.313,1.313,0,1,1,2.624.017q0,3.466,0,6.929V9.317c.094-.086.155-.139.212-.2.6-.6,1.2-1.213,1.812-1.81a1.3,1.3,0,0,1,2.2.518,1.27,1.27,0,0,1-.356,1.339L7.5,12.445c-.316.317-.63.635-.95.947a1.3,1.3,0,0,1-1.9.005Q2.528,11.281.41,9.154A1.29,1.29,0,0,1,.38,7.3a1.293,1.293,0,0,1,1.875.009c.6.593,1.2,1.2,1.8,1.793C4.113,9.161,4.178,9.22,4.286,9.322Z" transform="translate(4.043 0)" fill="#0079ff"/>
      <path id="Trazado_6788" data-name="Trazado 6788" d="M19.279,3.257h0q0-.919,0-1.838A1.771,1.771,0,0,0,19.22.938a1.3,1.3,0,0,0-2.548.372V3.257h0v.934H2.61V3.257h0q0-.988,0-1.973A1.292,1.292,0,0,0,.978.049,1.31,1.31,0,0,0,0,1.446Q0,2.614,0,3.785H0v.537a2.943,2.943,0,0,0,.057.629A2.345,2.345,0,0,0,2.516,6.814q7.125,0,14.25,0a2.975,2.975,0,0,0,.653-.058,2.328,2.328,0,0,0,1.86-2.386C19.281,4,19.279,3.627,19.279,3.257Z" transform="translate(0 12.47)" fill="#0079ff"/>
    </g>
  </g>
</svg>
