<svg xmlns="http://www.w3.org/2000/svg" width="27.474" height="15.675" viewBox="0 0 27.474 15.675">
  <g id="Grupo_5438" data-name="Grupo 5438" transform="translate(0 0)">
    <g id="Grupo_5221" data-name="Grupo 5221" transform="translate(0)">
      <path id="Trazado_5605" data-name="Trazado 5605" d="M688.388,379.831c-3.671,4.583-8.4,7.344-13.561,7.344s-9.889-2.76-13.56-7.343a.789.789,0,0,1,0-1c7.821-9.783,19.348-9.783,27.123,0a.789.789,0,0,1,0,.993Zm-13.56-6.363a5.869,5.869,0,1,1-5.87,5.869,5.869,5.869,0,0,1,5.87-5.869Z" transform="translate(-661.09 -371.5)" fill="#fff" fill-rule="evenodd"/>
      <path id="Trazado_5606" data-name="Trazado 5606" d="M680.56,377.459a4.108,4.108,0,0,1,.866.092,1.694,1.694,0,1,0,2.626,1.86,4.1,4.1,0,1,1-3.493-1.951Z" transform="translate(-666.823 -373.722)" fill="#fff" fill-rule="evenodd"/>
    </g>
  </g>
</svg>
