<svg xmlns="http://www.w3.org/2000/svg" xmlns:xlink="http://www.w3.org/1999/xlink" width="13.509" height="16.867" viewBox="0 0 13.509 16.867">
  <defs>
    <clipPath id="clip-path">
      <rect id="Rectángulo_11835" data-name="Rectángulo 11835" width="13.509" height="16.867" fill="#0079ff"/>
    </clipPath>
  </defs>
  <g id="Grupo_5447" data-name="Grupo 5447" transform="translate(0 0)">
    <g id="Grupo_4196" data-name="Grupo 4196" transform="translate(0 0)" clip-path="url(#clip-path)">
      <path id="Trazado_6643" data-name="Trazado 6643" d="M15.388,0a1.532,1.532,0,0,1,.826.5,1.333,1.333,0,0,1,.293.82c0,.308,0,.615,0,.922q0,5.146,0,10.292a1.319,1.319,0,0,1-1.019,1.341,1.134,1.134,0,0,1-.34.041.468.468,0,0,1-.446-.446.459.459,0,0,1,.406-.482c.312-.023.466-.179.465-.546q-.006-5.483,0-10.967c0-.41-.131-.54-.544-.54H7.467c-.187,0-.371.014-.47.2a1,1,0,0,0-.072.267A.466.466,0,0,1,6,1.321,1.338,1.338,0,0,1,6.917.068c.068-.021.134-.045.2-.068Z" transform="translate(-2.999 0)" fill="#0079ff"/>
      <path id="Trazado_6644" data-name="Trazado 6644" d="M0,12.84q0-2.783,0-5.567A1.316,1.316,0,0,1,1.019,5.933a1.722,1.722,0,0,1,.439-.05q3.8,0,7.593,0A1.358,1.358,0,0,1,10.51,7.34q0,5.534,0,11.067a1.323,1.323,0,0,1-.986,1.351,1.4,1.4,0,0,1-.374.047q-3.9,0-7.791,0A1.324,1.324,0,0,1,0,18.439q0-2.8,0-5.6m9.565.013V7.386c0-.447-.116-.56-.569-.56H1.5c-.05,0-.1,0-.149,0a.392.392,0,0,0-.411.365,1.228,1.228,0,0,0-.013.2q0,5.459,0,10.917a1.386,1.386,0,0,0,.022.245.362.362,0,0,0,.322.3,1.687,1.687,0,0,0,.214.009H9.015a1.848,1.848,0,0,0,.2-.007.372.372,0,0,0,.347-.355c.006-.071.006-.142.006-.214V12.853" transform="translate(0 -2.94)" fill="#0079ff"/>
    </g>
  </g>
</svg>
