<svg id="Grupo_4159" data-name="Grupo 4159" xmlns="http://www.w3.org/2000/svg" xmlns:xlink="http://www.w3.org/1999/xlink" width="32.952" height="23.174" viewBox="0 0 32.952 23.174">
  <defs>
    <clipPath id="clip-path">
      <rect id="Rectángulo_11794" data-name="Rectángulo 11794" width="32.952" height="23.174" fill="#fff"/>
    </clipPath>
  </defs>
  <g id="Grupo_4158" data-name="Grupo 4158" transform="translate(0 0)" clip-path="url(#clip-path)">
    <path id="Trazado_6602" data-name="Trazado 6602" d="M77,23.805l-.276.8-9.777-9.973L76.7,4.679l.3.85Z" transform="translate(-44.044 -3.078)" fill="#fff"/>
    <path id="Trazado_6603" data-name="Trazado 6603" d="M34.394.327c-.066.069-.13.14-.2.207Q28.005,6.7,21.815,12.857a3.018,3.018,0,0,1-2.416.982,3.1,3.1,0,0,1-2.02-1.007Q11.84,7.316,6.3,1.8C5.8,1.311,5.321.81,4.758.237A7.544,7.544,0,0,1,5.937.016C7.051-.012,8.167.006,9.282.006q11.887,0,23.774.008A9.975,9.975,0,0,1,34.4.194c0,.044-.006.089-.009.133" transform="translate(-3.13 0)" fill="#fff"/>
    <path id="Trazado_6604" data-name="Trazado 6604" d="M15.041,37.717c.5.507.937.952,1.381,1.386a4.812,4.812,0,0,0,6.959,0c.444-.434.876-.879,1.348-1.354L34.581,47.8a6.635,6.635,0,0,1-1.118.178c-2.456.019-4.911.009-7.367.009q-9.828,0-19.656,0A2.713,2.713,0,0,1,5.2,47.752l9.836-10.035" transform="translate(-3.424 -24.815)" fill="#fff"/>
    <path id="Trazado_6605" data-name="Trazado 6605" d="M10.083,14.811.332,24.758A2.588,2.588,0,0,1,0,23.438q0-6.29,0-12.579c0-1.6-.013-3.2.01-4.794A7.733,7.733,0,0,1,.21,4.88l.113-.023,9.759,9.954" transform="translate(0 -3.195)" fill="#fff"/>
  </g>
</svg>
