<svg id="Grupo_4551" data-name="Grupo 4551" xmlns="http://www.w3.org/2000/svg" xmlns:xlink="http://www.w3.org/1999/xlink" width="33.268" height="22.173" viewBox="0 0 33.268 22.173">
  <defs>
    <clipPath id="clip-path">
      <rect id="Rectángulo_11924" data-name="Rectángulo 11924" width="33.268" height="22.173" fill="#ff6113"/>
    </clipPath>
  </defs>
  <g id="Grupo_4245" data-name="Grupo 4245" clip-path="url(#clip-path)">
    <path id="Trazado_6667" data-name="Trazado 6667" d="M39.818,12.2c-.223,0-.4,0-.568,0A1.649,1.649,0,0,1,37.6,10.541q-.006-4.451,0-8.9A1.637,1.637,0,0,1,39.232,0Q46.473,0,53.714,0a1.633,1.633,0,0,1,1.628,1.633q.009,4.451,0,8.9a1.64,1.64,0,0,1-1.677,1.656c-2.956,0-5.913,0-8.869.01a.985.985,0,0,0-.579.219c-1.133.948-2.252,1.913-3.37,2.879a.621.621,0,0,1-.722.163.6.6,0,0,1-.31-.638c.007-.864,0-1.727,0-2.633M43.7,6.07c0,.866,0,1.732,0,2.6a.672.672,0,0,0,.311.681c.267.147.483.015.7-.123q2.038-1.277,4.08-2.547c.593-.371.6-.781.011-1.151Q46.755,4.24,44.7,2.958a.637.637,0,0,0-.707-.107.654.654,0,0,0-.292.656c0,.855,0,1.709,0,2.564" transform="translate(-22.079 0)" fill="#ff6113"/>
    <path id="Trazado_6668" data-name="Trazado 6668" d="M14.443,2.676V4.9H3.079c-.706,0-.862.153-.862.844q0,7.483,0,14.966c0,.648.172.82.819.82H27.985c.676,0,.845-.167.845-.831q0-2.7,0-5.4v-.4h2.218v.351q0,3.36,0,6.721a1.654,1.654,0,0,1-1.769,1.776H1.767A1.656,1.656,0,0,1,0,21.966Q0,13.2,0,4.436A1.644,1.644,0,0,1,1.717,2.678q6.29-.008,12.578,0h.148" transform="translate(0 -1.571)" fill="#ff6113"/>
    <path id="Trazado_6669" data-name="Trazado 6669" d="M22.945,26.726H10.752a3.2,3.2,0,0,1,1.157-2.509,3.5,3.5,0,0,1,2.718-.789c0-.462,0-.9,0-1.329a.286.286,0,0,0-.089-.176,3.391,3.391,0,0,1-1.014-2.763,1.081,1.081,0,0,0-.009-.134c-.472-.177-.554-.283-.543-.79a15.086,15.086,0,0,1,.085-2.173,3.23,3.23,0,0,1,3.178-2.616,9.268,9.268,0,0,1,2.126.151,3.213,3.213,0,0,1,2.37,3.128c0,.519,0,1.039,0,1.558,0,.455-.095.581-.524.719-.032.391-.043.783-.1,1.168a2.9,2.9,0,0,1-.814,1.609.709.709,0,0,0-.231.577c.019.334,0,.669,0,1.062a3.448,3.448,0,0,1,3.268,1.4,3.143,3.143,0,0,1,.613,1.913m-8.312-7.752c0,.243-.009.438,0,.63a2.215,2.215,0,0,0,2.052,2.14,2.166,2.166,0,0,0,2.269-1.588,10.547,10.547,0,0,0,.112-1.128c.071-.492-.347-.656-.6-.932-.024-.027-.131-.006-.185.022a6.733,6.733,0,0,1-3.654.855m3.316,3.815H15.737c.088.513-.265,1.194.441,1.57a1.328,1.328,0,0,0,1.414-.05c.623-.408.271-1.042.358-1.52" transform="translate(-6.313 -7.895)" fill="#ff6113"/>
  </g>
</svg>
