<svg id="Grupo_30" data-name="Grupo 30" xmlns="http://www.w3.org/2000/svg" xmlns:xlink="http://www.w3.org/1999/xlink" width="20.34" height="16.286" viewBox="0 0 20.34 16.286">
  <defs>
    <clipPath id="clip-path">
      <rect id="Rectángulo_11556" data-name="Rectángulo 11556" width="20.34" height="16.286" fill="#4a4a49"/>
    </clipPath>
  </defs>
  <g id="Grupo_13" data-name="Grupo 13" clip-path="url(#clip-path)">
    <path id="Trazado_6465" data-name="Trazado 6465" d="M0,2.462A.8.8,0,0,1,.833,2c3.3.008,6.6,0,9.9.008a.27.27,0,0,0,.315-.225,2.64,2.64,0,0,1,4.988-.013.3.3,0,0,0,.35.238C17.44,2,18.492,2,19.544,2a1.2,1.2,0,0,1,.389.054.633.633,0,0,1,.391.721.657.657,0,0,1-.669.511c-.946,0-1.892,0-2.838,0-.212,0-.465-.07-.623.022s-.191.346-.283.528A2.64,2.64,0,0,1,11.05,3.5c-.062-.191-.149-.217-.319-.216-3.3,0-6.6,0-9.9.008A.794.794,0,0,1,0,2.819ZM13.545,4.013a1.374,1.374,0,0,0,1.376-1.374,1.388,1.388,0,0,0-1.368-1.368,1.373,1.373,0,0,0-1.368,1.38,1.359,1.359,0,0,0,1.36,1.362" transform="translate(0 0)" fill="#4a4a49"/>
    <path id="Trazado_6466" data-name="Trazado 6466" d="M0,209.638a.787.787,0,0,1,.826-.475c3.308.008,6.616,0,9.923.009a.258.258,0,0,0,.3-.218,2.646,2.646,0,0,1,5.02.045.2.2,0,0,0,.232.171q1.677-.008,3.354,0a.657.657,0,0,1,.666.49.62.62,0,0,1-.314.706,1.066,1.066,0,0,1-.439.089c-1.052.007-2.1.009-3.156,0-.205,0-.3.038-.378.255a2.636,2.636,0,0,1-4.992-.066c-.053-.162-.134-.187-.283-.187-3.308,0-6.616,0-9.923.007A.814.814,0,0,1,0,210Zm13.562-1.193a1.358,1.358,0,0,0-1.377,1.363,1.374,1.374,0,0,0,1.35,1.378,1.389,1.389,0,0,0,1.386-1.37,1.374,1.374,0,0,0-1.358-1.371" transform="translate(0 -196.176)" fill="#4a4a49"/>
    <path id="Trazado_6467" data-name="Trazado 6467" d="M0,105.977a.833.833,0,0,1,.863-.443c1.039.02,2.078.007,3.117.007H4.2a2.77,2.77,0,0,1,.7-1.232,2.642,2.642,0,0,1,4.381,1.026c.058.174.135.21.3.21q5.033-.008,10.066,0a.633.633,0,0,1,.612.911.644.644,0,0,1-.631.361q-5-.005-10.006-.006c-.194,0-.287.033-.359.246a2.641,2.641,0,0,1-2.537,1.777,2.677,2.677,0,0,1-2.484-1.86c-.016-.05-.032-.1-.052-.159H2.67c-.6,0-1.205-.018-1.806.007A.826.826,0,0,1,0,106.374Zm6.756,1.562a1.364,1.364,0,0,0,.053-2.727,1.364,1.364,0,1,0-.053,2.727" transform="translate(0 -98.035)" fill="#4a4a49"/>
  </g>
</svg>
