<?xml version="1.0" standalone="no"?>
<!DOCTYPE svg PUBLIC "-//W3C//DTD SVG 20010904//EN"
 "http://www.w3.org/TR/2001/REC-SVG-20010904/DTD/svg10.dtd">
<svg version="1.0" xmlns="http://www.w3.org/2000/svg"
 width="125.000000pt" height="127.000000pt" viewBox="0 0 125.000000 127.000000"
 preserveAspectRatio="xMidYMid meet">

<g transform="translate(0.000000,127.000000) scale(0.100000,-0.100000)"
fill="#000000" stroke="none">
<path d="M85 1205 l-25 -24 0 -591 0 -590 520 0 520 0 0 502 0 502 -113 113
-113 113 -382 0 -383 0 -24 -25z m677 -151 c3 -105 3 -106 36 -135 31 -28 36
-29 132 -29 l100 0 0 -435 0 -435 -450 0 -450 0 0 570 0 570 314 0 314 0 4
-106z m178 16 c50 -49 90 -94 90 -100 0 -15 -173 -13 -188 2 -15 15 -17 188
-2 188 6 0 51 -40 100 -90z"/>
<path d="M248 1019 c-15 -8 -18 -25 -18 -109 0 -119 1 -120 115 -120 114 0
115 1 115 120 0 88 -2 100 -19 110 -25 13 -171 13 -193 -1z m177 -109 l0 -75
-80 0 -80 0 -3 64 c-4 93 -5 92 85 89 l78 -3 0 -75z"/>
<path d="M530 985 c0 -11 12 -15 50 -15 38 0 50 4 50 15 0 11 -12 15 -50 15
-38 0 -50 -4 -50 -15z"/>
<path d="M530 885 c0 -12 18 -15 105 -15 87 0 105 3 105 15 0 12 -18 15 -105
15 -87 0 -105 -3 -105 -15z"/>
<path d="M250 698 c-18 -7 -20 -17 -20 -107 0 -120 1 -121 117 -121 100 0 115
10 111 70 l-3 45 -18 -38 -18 -38 -77 3 -77 3 0 75 0 75 65 3 c58 3 90 14 90
31 0 8 -146 8 -170 -1z"/>
<path d="M428 653 l-57 -57 -25 23 c-24 23 -46 22 -46 -3 0 -6 16 -27 35 -46
l35 -34 70 69 c65 65 87 105 57 105 -7 0 -38 -26 -69 -57z"/>
<path d="M537 654 c-4 -4 -7 -13 -7 -21 0 -11 27 -13 138 -11 114 3 137 6 137
18 0 12 -22 15 -131 18 -71 1 -133 -1 -137 -4z"/>
<path d="M530 540 c0 -19 6 -20 201 -20 186 0 200 1 197 18 -3 15 -22 17 -201
20 -192 2 -197 2 -197 -18z"/>
<path d="M253 380 c-22 -9 -23 -15 -23 -109 0 -120 1 -121 115 -121 114 0 115
1 115 121 0 98 0 100 -26 109 -31 12 -151 12 -181 0z m172 -110 l0 -75 -80 0
-80 0 -3 64 c-4 93 -5 92 85 89 l78 -3 0 -75z"/>
<path d="M537 334 c-4 -4 -7 -13 -7 -21 0 -9 18 -13 66 -13 57 0 65 2 62 18
-2 13 -15 18 -58 20 -31 2 -59 0 -63 -4z"/>
<path d="M537 234 c-4 -4 -7 -13 -7 -21 0 -10 40 -13 201 -13 186 0 200 1 197
18 -3 15 -22 17 -194 20 -105 1 -193 -1 -197 -4z"/>
</g>
</svg>
