<svg xmlns="http://www.w3.org/2000/svg" width="42.381" height="42.381" viewBox="0 0 42.381 42.381">
  <g transform="rotate(180 21.19 21.19)">
    <g id="Grupo_5448" data-name="Grupo 5448" transform="translate(-1113.15 -84.18)">
    <g id="Grupo_5450" data-name="Grupo 5450" transform="translate(-1 -4.307)">
      <g id="Grupo_4824" data-name="Grupo 4824" transform="translate(1126.382 97.987)">
        <g id="Grupo_4823" data-name="Grupo 4823" transform="translate(18.052 0) rotate(90)">
          <path id="Trazado_6810" data-name="Trazado 6810" d="M8.964,18.042a1.381,1.381,0,0,1-1.152-.512q-3.147-3.189-6.3-6.374c-.34-.344-.69-.678-1.018-1.032A1.44,1.44,0,0,1,.532,7.918Q4.164,4.241,7.8.571A1.633,1.633,0,0,1,9,0a1.22,1.22,0,0,1,1.157.721A1.247,1.247,0,0,1,10.1,2.1a3.819,3.819,0,0,1-.413.477Q6.636,5.648,3.578,8.715c-.246.246-.133.394.054.584q3.109,3.172,6.211,6.352a1.388,1.388,0,0,1,.125,1.974A1.093,1.093,0,0,1,8.964,18.042Z" transform="translate(0 0)" fill="#ff6113"/>
        </g>
        <path id="Trazado_6811" data-name="Trazado 6811" d="M-11325,2689v14.786" transform="translate(11333.685 -2684.407)" fill="none" stroke="#ff6113" stroke-linecap="round" stroke-width="5"/>
      </g>
      <g id="Elipse_371" data-name="Elipse 371" transform="translate(1114.15 88.486)" fill="none" stroke="#ff6113" stroke-width="3">
        <circle cx="21.19" cy="21.19" r="21.19" stroke="none"/>
        <circle cx="21.19" cy="21.19" r="19.69" fill="none"/>
      </g>
    </g>
  </g>
  </g>
</svg>
