<svg id="Grupo_4161" data-name="Grupo 4161" xmlns="http://www.w3.org/2000/svg" xmlns:xlink="http://www.w3.org/1999/xlink" width="30.135" height="30.123" viewBox="0 0 30.135 30.123">
  <defs>
    <clipPath id="clip-path">
      <rect id="Rectángulo_11795" data-name="Rectángulo 11795" width="30.135" height="30.123" fill="none"/>
    </clipPath>
  </defs>
  <g id="Grupo_4160" data-name="Grupo 4160" clip-path="url(#clip-path)">
    <path id="Trazado_6606" data-name="Trazado 6606" d="M0,6.633A4.489,4.489,0,0,1,1.5,3.072C2.34,2.3,3.1,1.456,3.944.691A2.19,2.19,0,0,1,7.13.685c1.483,1.411,2.9,2.889,4.342,4.343a1.831,1.831,0,0,1,.261.37,2.153,2.153,0,0,1-.238,2.666c-.778.844-1.6,1.643-2.411,2.459-.565.568-.561.567-.231,1.281a18.832,18.832,0,0,0,3.458,4.8,22.6,22.6,0,0,0,4.552,3.847c.583.367,1.214.66,1.823.987a.535.535,0,0,0,.692-.168c.769-.778,1.544-1.55,2.316-2.324a2.889,2.889,0,0,1,1.394-.849,2.23,2.23,0,0,1,1.891.454,4.541,4.541,0,0,1,.485.429c1.229,1.223,2.464,2.439,3.675,3.679a4.158,4.158,0,0,1,.776,1.065,2,2,0,0,1-.342,2.3c-.971,1.076-1.988,2.116-3.054,3.1a4.5,4.5,0,0,1-3.653.96,18.474,18.474,0,0,1-7.392-2.631A33.522,33.522,0,0,1,3.3,15.738,23.007,23.007,0,0,1,.19,8.4,4.615,4.615,0,0,1,.1,7.861C.056,7.453.031,7.042,0,6.633" transform="translate(0 0)" fill="#fff"/>
  </g>
</svg>
