<svg xmlns="http://www.w3.org/2000/svg" width="28.257" height="28.25" viewBox="0 0 28.257 28.25">
  <path id="Trazado_6598" data-name="Trazado 6598" d="M14.113,28.249A14.173,14.173,0,0,1,.068,15.592a13.846,13.846,0,0,1,4.1-11.48A13.435,13.435,0,0,1,12.986.043,13.787,13.787,0,0,1,24.161,4.154a13.548,13.548,0,0,1,4.051,8.833,13.812,13.812,0,0,1-3.7,10.725,14.009,14.009,0,0,1-10.4,4.537m7.712-15.617a.807.807,0,0,0-.755-.936c-.494-.106-1-.154-1.492-.232-.624-.1-1.247-.192-1.874-.266a1.235,1.235,0,0,1-1.146-.707c-.145-.339-.32-.665-.493-.992-.4-.76-.759-1.544-1.133-2.318a.748.748,0,0,0-.354-.346.891.891,0,0,0-1.286.442c-.455.907-.886,1.826-1.355,2.726-.176.337-.262.743-.623.967a2.584,2.584,0,0,1-.955.234c-1.048.19-2.111.275-3.156.489a.88.88,0,0,0-.6,1.438,3.178,3.178,0,0,0,.337.373c.792.778,1.591,1.549,2.379,2.33a.831.831,0,0,1,.287.9,3.019,3.019,0,0,0-.068.437q-.264,1.523-.531,3.046a1.106,1.106,0,0,0,.014.6.948.948,0,0,0,1.414.551c.312-.157.606-.349.919-.5.637-.317,1.27-.637,1.886-.994a1.378,1.378,0,0,1,1.611-.086,12.114,12.114,0,0,0,1.181.634q.9.476,1.808.953a.863.863,0,0,0,.666.123.943.943,0,0,0,.734-1.167c-.2-1.178-.394-2.357-.62-3.531a.992.992,0,0,1,.289-.931c.282-.3.586-.576.877-.867.55-.547,1.086-1.106,1.65-1.639.227-.215.432-.411.387-.728" transform="translate(0 0)" fill="#ff6113"/>
</svg>
